<svg xmlns="http://www.w3.org/2000/svg" width="278.4" height="278.4" viewBox="0 0 278.4 278.4">
  <g id="Grupo_9186" data-name="Grupo 9186" transform="translate(-40.953 -1910.571)">
    <g id="Grupo_9185" data-name="Grupo 9185">
      <path id="Trazado_9101" data-name="Trazado 9101" d="M59.5,2119.235a139.237,139.237,0,0,1,120.656-208.664c76.788,0,139.866,63.656,139.194,140.444a138.682,138.682,0,0,1-36.969,93.238,64.766,64.766,0,0,0-51.135-25.018Zm0,0" fill="#453d83"/>
    </g>
    <path id="Trazado_9102" data-name="Trazado 9102" d="M295.9,2049.771a115.748,115.748,0,1,1-115.748-115.75A115.745,115.745,0,0,1,295.9,2049.771Zm0,0" fill="#51489a"/>
    <path id="Trazado_9103" data-name="Trazado 9103" d="M71.615,2006.5a20.391,20.391,0,1,1,20.391,20.391A20.392,20.392,0,0,1,71.615,2006.5Zm44.919,57.678q-.717,0-1.421.048.063-.791.062-1.6a20.391,20.391,0,1,0-20.391,20.391c.479,0,.951-.017,1.422-.048-.043.527-.062,1.059-.062,1.6a20.391,20.391,0,1,0,20.39-20.39Zm0,0" fill="#915041"/>
    <path id="Trazado_9104" data-name="Trazado 9104" d="M207.612,2062.631a20.394,20.394,0,0,1-14.047,19.383c.023.394.032.79.032,1.189a21.758,21.758,0,1,1-26.757-21.181,20.391,20.391,0,0,1,40.772.609Zm-17.179-35.737a20.391,20.391,0,1,0-20.39-20.391,20.392,20.392,0,0,0,20.39,20.391Zm0,0" fill="#a65d4e"/>
    <path id="Trazado_9105" data-name="Trazado 9105" d="M225.556,2069.618H203.262a12.249,12.249,0,0,0-12.234,12.235v10.6a12.248,12.248,0,0,0,12.234,12.234h22.294a12.248,12.248,0,0,0,12.234-12.234v-10.6a12.249,12.249,0,0,0-12.234-12.235Zm4.078,22.838a4.082,4.082,0,0,1-4.078,4.078H203.262a4.082,4.082,0,0,1-4.078-4.078v-10.6a4.082,4.082,0,0,1,4.078-4.078h22.294a4.082,4.082,0,0,1,4.078,4.078Zm0,0" fill="#958fca"/>
    <path id="Trazado_9106" data-name="Trazado 9106" d="M232.353,1946.368v9.063a4.078,4.078,0,1,1-8.156,0v-9.063a4.078,4.078,0,1,1,8.156,0Zm0,0" fill="#6a61b4"/>
    <path id="Trazado_9107" data-name="Trazado 9107" d="M250.569,1938.212v17.219a4.078,4.078,0,0,1-8.157,0v-17.219a4.078,4.078,0,0,1,8.157,0Zm0,0" fill="#958fca"/>
    <path id="Trazado_9108" data-name="Trazado 9108" d="M267.7,1930.962v24.469a4.078,4.078,0,0,1-8.157,0v-24.469a4.078,4.078,0,0,1,8.157,0Zm0,0" fill="#c1bde0"/>
    <path id="Trazado_9109" data-name="Trazado 9109" d="M94.784,2032.915v5.438a13.593,13.593,0,0,1-27.187,0v-5.438a13.593,13.593,0,1,1,27.187,0Zm0,0" fill="#ffbeaa"/>
    <path id="Trazado_9110" data-name="Trazado 9110" d="M115.99,2100.884a38.061,38.061,0,0,0-38.062,38.062s-5.092-.43-7.457-3.455A139.317,139.317,0,0,1,59.5,2119.235a38.045,38.045,0,0,1,32.568-18.351Zm0,0" fill="#d1462a"/>
    <path id="Trazado_9111" data-name="Trazado 9111" d="M136.633,2182.033a139.457,139.457,0,0,1-66.162-46.542,38.066,38.066,0,0,1,37.907-34.607H141v78.008a3.318,3.318,0,0,1-4.37,3.141Zm0,0" fill="#f76937"/>
    <path id="Trazado_9112" data-name="Trazado 9112" d="M147.8,2118.655v65.239a1.021,1.021,0,0,1-1.263.991q-5.25-1.3-10.34-3v-63.233Zm-28.547,16.213H89.307a4.078,4.078,0,0,0,0,8.157h29.946a4.078,4.078,0,0,0,0-8.157Zm0,0" fill="#d1462a"/>
    <path id="Trazado_9113" data-name="Trazado 9113" d="M75.753,2030.2v10.875a13.572,13.572,0,0,0,5.437,10.875A13.593,13.593,0,0,1,67.6,2038.353v-5.438a13.594,13.594,0,0,1,13.593-13.594,13.573,13.573,0,0,0-5.437,10.875Zm125.062-10.875v-10.875a59.813,59.813,0,0,0-119.625,0v21.75a59.839,59.839,0,0,0,43.5,57.562v18.563a16.313,16.313,0,1,0,32.625,0v-18.563a59.964,59.964,0,0,0,39.638-36.37,13.6,13.6,0,0,0,17.456-13.035v-5.438a13.594,13.594,0,0,0-13.594-13.594Zm0,0" fill="#faa68e"/>
    <path id="Trazado_9114" data-name="Trazado 9114" d="M200.815,2008.446v21.75a59.837,59.837,0,0,1-44.159,57.743,28.707,28.707,0,0,1-14.993,0A59.837,59.837,0,0,1,97.5,2030.2v-21.75a59.826,59.826,0,0,1,51.656-59.26,59.825,59.825,0,0,1,51.656,59.26Zm0,0" fill="#ffbeaa"/>
    <path id="Trazado_9115" data-name="Trazado 9115" d="M157.48,2054.631a23.329,23.329,0,0,1-32.954,0,4.078,4.078,0,0,1,5.767-5.766,15.164,15.164,0,0,0,21.42,0,4.078,4.078,0,0,1,5.767,5.766ZM141,2037.124a11.081,11.081,0,0,0,7.884-3.269,4.077,4.077,0,0,0-5.766-5.765,2.991,2.991,0,0,1-4.234,0,4.078,4.078,0,0,0-5.768,5.765,11.079,11.079,0,0,0,7.884,3.269Zm0,0" fill="#e09380"/>
    <path id="Trazado_9116" data-name="Trazado 9116" d="M174.987,2014.66a8.156,8.156,0,1,1-8.156-8.157,8.154,8.154,0,0,1,8.156,8.157Zm-59.812-8.157a8.156,8.156,0,1,0,8.156,8.157,8.157,8.157,0,0,0-8.156-8.157Zm0,0" fill="#61362b"/>
    <path id="Trazado_9117" data-name="Trazado 9117" d="M124.69,2010.582a4.078,4.078,0,1,1-4.078-4.079,4.08,4.08,0,0,1,4.078,4.079Zm47.579-4.079a4.078,4.078,0,1,0,4.078,4.079,4.08,4.08,0,0,0-4.078-4.079Zm0,0" fill="#fff5f5"/>
    <path id="Trazado_9118" data-name="Trazado 9118" d="M119.754,1989.84c0,8.81-9.963,15.95-22.251,15.95s-22.251-7.14-22.251-15.95,9.963-15.95,22.251-15.95,22.251,7.143,22.251,15.95Zm0,0" fill="#915041"/>
    <path id="Trazado_9119" data-name="Trazado 9119" d="M206.754,1991.953c0,8.807-7.5,15.95-16.754,15.95a16.961,16.961,0,0,1-14.05-7.259,13.155,13.155,0,0,1-6.366,1.634,13.748,13.748,0,0,1,0-27.49,13.281,13.281,0,0,1,10.059,4.624A17.22,17.22,0,0,1,190,1976c9.255,0,16.754,7.142,16.754,15.953Zm0,0" fill="#a65d4e"/>
    <path id="Trazado_9120" data-name="Trazado 9120" d="M206.474,1993.015H75.532l-.184-22.076a47.858,47.858,0,0,1,34.352-46.312l17.7-5.206a47.845,47.845,0,0,1,27.19.057l17.525,5.231a47.857,47.857,0,0,1,34.168,45.457Zm0,0" fill="#e9cc5a"/>
    <path id="Trazado_9121" data-name="Trazado 9121" d="M95.674,1970.939l.183,22.076H75.532l-.184-22.076a47.858,47.858,0,0,1,34.352-46.312l17.7-5.206a48.04,48.04,0,0,1,10.812-1.869c4.3-.24-.016,4.673-.016,4.673l-8.171,2.4a47.857,47.857,0,0,0-34.352,46.312Zm0,0" fill="#e1b91e"/>
    <path id="Trazado_9122" data-name="Trazado 9122" d="M211.806,1988.534a7.273,7.273,0,0,1-7.272,7.273H77.472a7.274,7.274,0,0,1,0-14.548H204.534a7.272,7.272,0,0,1,7.272,7.275Zm0,0" fill="#e9cc5a"/>
    <path id="Trazado_9123" data-name="Trazado 9123" d="M162.343,1961.491V1922.7a7.273,7.273,0,1,1,14.547,0v38.795a7.273,7.273,0,1,1-14.547,0ZM141,1968.767a7.274,7.274,0,0,0,7.275-7.273v-43.647a7.275,7.275,0,1,0-14.55,0v43.644a7.274,7.274,0,0,0,7.275,7.276Zm-29.584,0a7.275,7.275,0,0,0,7.276-7.273v-38.8a7.274,7.274,0,1,0-14.548,0v38.795a7.272,7.272,0,0,0,7.272,7.276Zm93.115,12.492H95.144a7.274,7.274,0,0,0,0,14.548h109.39a7.274,7.274,0,0,0,0-14.548Zm0,0" fill="#fff04a"/>
    <path id="Trazado_9124" data-name="Trazado 9124" d="M282.378,2103.6v40.65q-3.4,3.684-7.066,7.112c-.864.81-3.583.734-4.469,1.521-15.678,13.961-31.869,23.191-52.687,28.946-1.212.337-3.254,2.773-4.478,3.076a140.3,140.3,0,0,1-67.238-.049V2103.6a8.156,8.156,0,0,1,8.157-8.157H274.222a8.155,8.155,0,0,1,8.156,8.157Zm0,0" fill="#e1b91e"/>
    <path id="Trazado_9125" data-name="Trazado 9125" d="M166.638,2095.446a8.157,8.157,0,0,0-8.156,8.157v83.692q-6.112-.955-12.042-2.433V2103.6a8.156,8.156,0,0,1,8.157-8.157Zm0,0" fill="#c3a01a"/>
    <path id="Trazado_9126" data-name="Trazado 9126" d="M244.315,2098.165a8.154,8.154,0,0,1-8.156,8.156h-43.5a8.156,8.156,0,0,1,0-16.312h43.5a8.154,8.154,0,0,1,8.156,8.156Zm0,0" fill="#fff04a"/>
    <path id="Trazado_9127" data-name="Trazado 9127" d="M204.016,2146.655a23.653,23.653,0,0,1-1.167,4.359,4.083,4.083,0,0,0-3.962,6.856,24.184,24.184,0,0,1-3.191,3.192,4.085,4.085,0,0,0-6.858,3.965,23.8,23.8,0,0,1-4.357,1.163,4.084,4.084,0,0,0-7.919,0,23.869,23.869,0,0,1-4.362-1.163,4.082,4.082,0,0,0-6.853-3.965,23.886,23.886,0,0,1-3.191-3.192,4.082,4.082,0,0,0-3.965-6.854,23.728,23.728,0,0,1-1.164-4.361,4.083,4.083,0,0,0,0-7.918,23.78,23.78,0,0,1,1.164-4.362,4.082,4.082,0,0,0,3.965-6.853,23.886,23.886,0,0,1,3.191-3.192,4.082,4.082,0,0,0,6.853-3.965,23.54,23.54,0,0,1,4.362-1.163,4.084,4.084,0,0,0,7.919,0,23.242,23.242,0,0,1,4.357,1.163,4.085,4.085,0,0,0,6.858,3.965,24,24,0,0,1,3.191,3.192,4.081,4.081,0,0,0,3.962,6.853,23.706,23.706,0,0,1,1.167,4.362,4.083,4.083,0,0,0,0,7.918Zm0,0" fill="#fff04a"/>
    <path id="Trazado_9128" data-name="Trazado 9128" d="M191.858,2142.7a11.338,11.338,0,1,1-11.337-11.34,11.338,11.338,0,0,1,11.337,11.34Zm0,0" fill="#c3a01a"/>
    <path id="Trazado_9129" data-name="Trazado 9129" d="M275.182,2151.487a139.553,139.553,0,0,1-10.754,9.082c-.617.47-2.713-.544-3.335-.082a128.342,128.342,0,0,1-31.9,17.74c-.677.254-1.357,2.367-2.04,2.611a138.42,138.42,0,0,1-13.472,4.07,3.55,3.55,0,0,1,1.6-4.181l1.206-.7a30.212,30.212,0,0,1-1.926-7.2h-1.4a3.548,3.548,0,0,1-3.548-3.551v-1.3a3.548,3.548,0,0,1,3.548-3.551h1.4a30.2,30.2,0,0,1,1.926-7.2l-1.206-.7a3.549,3.549,0,0,1-1.3-4.849l.654-1.13a3.548,3.548,0,0,1,4.848-1.3l1.213.7a30.5,30.5,0,0,1,5.267-5.268l-.7-1.212a3.546,3.546,0,0,1,1.3-4.848l1.129-.655a3.555,3.555,0,0,1,4.852,1.3l.7,1.206a30.213,30.213,0,0,1,7.2-1.925v-1.4a3.551,3.551,0,0,1,3.551-3.548h1.306a3.548,3.548,0,0,1,3.548,3.548v1.4a30.2,30.2,0,0,1,7.2,1.925l.7-1.206a3.552,3.552,0,0,1,4.848-1.3l1.133.655a3.546,3.546,0,0,1,1.3,4.848l-.7,1.212a30.386,30.386,0,0,1,5.265,5.268l1.212-.7a3.552,3.552,0,0,1,4.851,1.3Zm0,0" fill="#f76937"/>
    <path id="Trazado_9130" data-name="Trazado 9130" d="M261.775,2162.543a138.862,138.862,0,0,1-31.566,17.156,18.186,18.186,0,1,1,31.566-17.156Zm0,0" fill="#c3a01a"/>
    <path id="Trazado_9131" data-name="Trazado 9131" d="M264.4,2160.594q-2.611,1.989-5.318,3.855a15.034,15.034,0,1,0-25.8,14.024q-3.033,1.254-6.132,2.365a21.33,21.33,0,1,1,37.247-20.244Zm0,0" fill="#d1462a"/>
    <path id="Trazado_9132" data-name="Trazado 9132" d="M319.353,1978.54v65.25a8.154,8.154,0,0,1-8.156,8.156H257.365l-8.776,14.628a3.472,3.472,0,0,1-6.449-1.787v-12.841h-8.156a8.154,8.154,0,0,1-8.156-8.156v-65.25a8.154,8.154,0,0,1,8.156-8.156H311.2a8.154,8.154,0,0,1,8.156,8.156Zm0,0" fill="#55a4f9"/>
    <path id="Trazado_9133" data-name="Trazado 9133" d="M319.353,1978.54v65.25a8.154,8.154,0,0,1-8.156,8.156h-57.6a8.156,8.156,0,0,1-8.156-8.156v-65.25a8.156,8.156,0,0,1,8.156-8.156h57.6a8.154,8.154,0,0,1,8.156,8.156Zm0,0" fill="#86befb"/>
    <path id="Trazado_9134" data-name="Trazado 9134" d="M269.328,1988.328a4.08,4.08,0,0,1,4.078-4.078h29.906a4.078,4.078,0,1,1,0,8.156H273.406a4.08,4.08,0,0,1-4.078-4.078Zm5.166,11.962a4.078,4.078,0,1,0,0,8.156h17.671a4.078,4.078,0,1,0,0-8.156Zm-19.3-16.312H242.14a5.438,5.438,0,0,0-5.437,5.437v13.05a5.439,5.439,0,0,0,5.437,5.438h13.05a5.439,5.439,0,0,0,5.438-5.438v-13.05a5.438,5.438,0,0,0-5.438-5.437Zm48.122,32.9H273.406a4.078,4.078,0,0,0,0,8.156h29.906a4.078,4.078,0,1,0,0-8.156Zm-11.147,16.04H274.494a4.078,4.078,0,1,0,0,8.156h17.671a4.078,4.078,0,1,0,0-8.156ZM255.19,2016.6H242.14a5.438,5.438,0,0,0-5.437,5.437v13.05a5.439,5.439,0,0,0,5.437,5.438h13.05a5.439,5.439,0,0,0,5.438-5.438v-13.05a5.438,5.438,0,0,0-5.438-5.437Zm0,0" fill="#c8e2fd"/>
    <path id="Trazado_9135" data-name="Trazado 9135" d="M254.1,1995.94a5.438,5.438,0,1,1-5.438-5.437,5.439,5.439,0,0,1,5.438,5.437Zm0,0" fill="#55a4f9"/>
  </g>
</svg>
