<svg xmlns="http://www.w3.org/2000/svg" xmlns:xlink="http://www.w3.org/1999/xlink" width="587.4" height="386.008" viewBox="0 0 587.4 386.008">
  <defs>
    <linearGradient id="linear-gradient" y1="0.5" x2="1" y2="0.5" gradientUnits="objectBoundingBox">
      <stop offset="0" stop-color="#df7e5a"/>
      <stop offset="0.498" stop-color="#ffaa7b"/>
      <stop offset="1" stop-color="#bf5239"/>
    </linearGradient>
  </defs>
  <g id="Grupo_9203" data-name="Grupo 9203" transform="translate(-792.575 -3770.763)">
    <path id="Trazado_9358" data-name="Trazado 9358" d="M944.119,3798.679v.981H865.026a1.512,1.512,0,0,0-1.511,1.511v.566a1.512,1.512,0,0,0,1.511,1.511h79.093v.981a1.235,1.235,0,0,0,1.787,1.1l5.55-2.775a1.235,1.235,0,0,0,0-2.208l-5.55-2.775A1.235,1.235,0,0,0,944.119,3798.679Z" fill="#0b92dd"/>
    <path id="Trazado_9359" data-name="Trazado 9359" d="M991.631,3907.7v.982H912.538a1.511,1.511,0,0,0-1.512,1.511v.565a1.512,1.512,0,0,0,1.512,1.512h79.093v.98a1.234,1.234,0,0,0,1.786,1.1l5.55-2.775a1.233,1.233,0,0,0,0-2.207l-5.55-2.776A1.234,1.234,0,0,0,991.631,3907.7Z" fill="#0b92dd"/>
    <rect id="Rectángulo_6150" data-name="Rectángulo 6150" width="587.4" height="198.8" transform="translate(792.575 3957.971)" fill="#d6a472"/>
    <g id="Grupo_9200" data-name="Grupo 9200">
      <path id="Trazado_9360" data-name="Trazado 9360" d="M966.458,3794.132a5.132,5.132,0,0,0-4.087,1.724,6.953,6.953,0,0,0-1.5,4.721,7.093,7.093,0,0,0,1.444,4.764,5.136,5.136,0,0,0,4.12,1.681,14.06,14.06,0,0,0,3.749-.591v1.6a11.551,11.551,0,0,1-4.028.612,6.812,6.812,0,0,1-5.355-2.1,8.671,8.671,0,0,1-1.886-5.984,9.441,9.441,0,0,1,.908-4.253,6.516,6.516,0,0,1,2.621-2.815,7.93,7.93,0,0,1,4.034-.988,9.742,9.742,0,0,1,4.318.9l-.773,1.568A8.332,8.332,0,0,0,966.458,3794.132Z"/>
      <path id="Trazado_9361" data-name="Trazado 9361" d="M983.506,3802.532a6.5,6.5,0,0,1-1.45,4.5,5.107,5.107,0,0,1-4.007,1.616,5.308,5.308,0,0,1-2.8-.741,4.889,4.889,0,0,1-1.891-2.127,7.412,7.412,0,0,1-.666-3.244,6.489,6.489,0,0,1,1.439-4.485,5.094,5.094,0,0,1,4-1.606,4.983,4.983,0,0,1,3.927,1.644A6.467,6.467,0,0,1,983.506,3802.532Zm-8.969,0a5.582,5.582,0,0,0,.9,3.437,3.581,3.581,0,0,0,5.312.006,5.561,5.561,0,0,0,.908-3.443,5.473,5.473,0,0,0-.908-3.411,3.189,3.189,0,0,0-2.68-1.165,3.139,3.139,0,0,0-2.643,1.149A5.537,5.537,0,0,0,974.537,3802.532Z"/>
      <path id="Trazado_9362" data-name="Trazado 9362" d="M994.689,3808.429v-7.616a3.076,3.076,0,0,0-.655-2.148,2.668,2.668,0,0,0-2.052-.709,3.384,3.384,0,0,0-2.707,1,5.042,5.042,0,0,0-.86,3.3v6.176h-1.783v-11.773h1.45l.291,1.611h.085a3.65,3.65,0,0,1,1.537-1.348,5,5,0,0,1,2.2-.478,4.471,4.471,0,0,1,3.2,1.026,4.367,4.367,0,0,1,1.074,3.282v7.68Z"/>
      <path id="Trazado_9363" data-name="Trazado 9363" d="M1008.149,3806.85h-.1a4.187,4.187,0,0,1-3.7,1.794,4.369,4.369,0,0,1-3.593-1.579,6.949,6.949,0,0,1-1.284-4.49,7.075,7.075,0,0,1,1.289-4.523,4.337,4.337,0,0,1,3.588-1.611,4.283,4.283,0,0,1,3.674,1.74h.139l-.075-.848-.043-.827v-4.791h1.783v16.714h-1.45Zm-3.567.3a3.243,3.243,0,0,0,2.648-.994,5.016,5.016,0,0,0,.822-3.206v-.376a5.909,5.909,0,0,0-.832-3.572,3.164,3.164,0,0,0-2.659-1.069,2.729,2.729,0,0,0-2.4,1.22,6.061,6.061,0,0,0-.832,3.442,5.809,5.809,0,0,0,.827,3.406A2.8,2.8,0,0,0,1004.582,3807.151Z"/>
      <path id="Trazado_9364" data-name="Trazado 9364" d="M1015.292,3796.656v7.638a3.071,3.071,0,0,0,.656,2.148,2.665,2.665,0,0,0,2.051.709,3.345,3.345,0,0,0,2.7-1.01,5.1,5.1,0,0,0,.854-3.3v-6.187h1.783v11.773h-1.471l-.258-1.579h-.1a3.548,3.548,0,0,1-1.52,1.332,5.107,5.107,0,0,1-2.218.462,4.5,4.5,0,0,1-3.217-1.02,4.343,4.343,0,0,1-1.069-3.266v-7.7Z"/>
      <path id="Trazado_9365" data-name="Trazado 9365" d="M1031.825,3808.644a5.026,5.026,0,0,1-3.959-1.573,6.476,6.476,0,0,1-1.4-4.453,6.676,6.676,0,0,1,1.424-4.566,5.123,5.123,0,0,1,4.055-1.611,8.031,8.031,0,0,1,1.7.183,5.631,5.631,0,0,1,1.332.429l-.548,1.515a8.423,8.423,0,0,0-1.289-.392,5.8,5.8,0,0,0-1.235-.156q-3.588,0-3.588,4.576a5.457,5.457,0,0,0,.875,3.331,3.049,3.049,0,0,0,2.595,1.16,7.919,7.919,0,0,0,3.018-.634v1.579A6.438,6.438,0,0,1,1031.825,3808.644Z"/>
      <path id="Trazado_9366" data-name="Trazado 9366" d="M1041.4,3807.173a5.788,5.788,0,0,0,.913-.07,6.071,6.071,0,0,0,.7-.145v1.364a3.264,3.264,0,0,1-.854.231,6.388,6.388,0,0,1-1.015.091q-3.415,0-3.416-3.6v-7h-1.686v-.86l1.686-.741.752-2.514h1.031v2.729h3.416v1.386h-3.416v6.928a2.386,2.386,0,0,0,.505,1.633A1.758,1.758,0,0,0,1041.4,3807.173Z"/>
      <path id="Trazado_9367" data-name="Trazado 9367" d="M1055.522,3802.532a6.5,6.5,0,0,1-1.45,4.5,5.108,5.108,0,0,1-4.007,1.616,5.311,5.311,0,0,1-2.8-.741,4.886,4.886,0,0,1-1.89-2.127,7.4,7.4,0,0,1-.666-3.244,6.483,6.483,0,0,1,1.439-4.485,5.091,5.091,0,0,1,4-1.606,4.979,4.979,0,0,1,3.926,1.644A6.463,6.463,0,0,1,1055.522,3802.532Zm-8.97,0a5.583,5.583,0,0,0,.9,3.437,3.582,3.582,0,0,0,5.312.006,5.562,5.562,0,0,0,.907-3.443,5.473,5.473,0,0,0-.907-3.411,3.191,3.191,0,0,0-2.681-1.165,3.138,3.138,0,0,0-2.642,1.149A5.53,5.53,0,0,0,1046.552,3802.532Z"/>
      <path id="Trazado_9368" data-name="Trazado 9368" d="M1064.019,3796.441a6.953,6.953,0,0,1,1.407.129l-.247,1.654a6.092,6.092,0,0,0-1.289-.161,3.139,3.139,0,0,0-2.444,1.16,4.231,4.231,0,0,0-1.015,2.89v6.316h-1.783v-11.773h1.472l.2,2.181h.086a5.176,5.176,0,0,1,1.579-1.773A3.553,3.553,0,0,1,1064.019,3796.441Z"/>
      <path id="Trazado_9369" data-name="Trazado 9369" d="M1081.357,3806.85h-.1a4.188,4.188,0,0,1-3.7,1.794,4.369,4.369,0,0,1-3.593-1.579,6.948,6.948,0,0,1-1.284-4.49,7.075,7.075,0,0,1,1.289-4.523,4.337,4.337,0,0,1,3.588-1.611,4.283,4.283,0,0,1,3.674,1.74h.139l-.075-.848-.043-.827v-4.791h1.783v16.714h-1.45Zm-3.567.3a3.243,3.243,0,0,0,2.648-.994,5.016,5.016,0,0,0,.822-3.206v-.376a5.909,5.909,0,0,0-.832-3.572,3.164,3.164,0,0,0-2.659-1.069,2.729,2.729,0,0,0-2.4,1.22,6.06,6.06,0,0,0-.832,3.442,5.809,5.809,0,0,0,.827,3.406A2.8,2.8,0,0,0,1077.79,3807.151Z"/>
      <path id="Trazado_9370" data-name="Trazado 9370" d="M1091.8,3808.644a5.408,5.408,0,0,1-4.119-1.59,6.149,6.149,0,0,1-1.51-4.415,6.828,6.828,0,0,1,1.4-4.522,4.658,4.658,0,0,1,3.765-1.676,4.442,4.442,0,0,1,3.5,1.456,5.574,5.574,0,0,1,1.289,3.84v1.128h-8.11a4.666,4.666,0,0,0,1.047,3.147,3.622,3.622,0,0,0,2.8,1.075,9.489,9.489,0,0,0,3.76-.795v1.59a9.456,9.456,0,0,1-1.789.585A10.073,10.073,0,0,1,1091.8,3808.644Zm-.483-10.71a2.912,2.912,0,0,0-2.261.924,4.253,4.253,0,0,0-.994,2.557h6.155a3.919,3.919,0,0,0-.752-2.584A2.648,2.648,0,0,0,1091.315,3797.934Z"/>
      <path id="Trazado_9371" data-name="Trazado 9371" d="M1108.685,3807.173a5.79,5.79,0,0,0,.913-.07,6.031,6.031,0,0,0,.7-.145v1.364a3.265,3.265,0,0,1-.854.231,6.388,6.388,0,0,1-1.015.091q-3.415,0-3.416-3.6v-7h-1.686v-.86l1.686-.741.752-2.514h1.031v2.729h3.416v1.386h-3.416v6.928a2.386,2.386,0,0,0,.505,1.633A1.758,1.758,0,0,0,1108.685,3807.173Z"/>
      <path id="Trazado_9372" data-name="Trazado 9372" d="M1112.5,3793.466a1.185,1.185,0,0,1,.3-.9,1.113,1.113,0,0,1,1.493,0,1.163,1.163,0,0,1,.312.892,1.181,1.181,0,0,1-.312.9,1.092,1.092,0,0,1-1.493,0A1.209,1.209,0,0,1,1112.5,3793.466Zm1.934,14.963h-1.783v-11.773h1.783Z"/>
      <path id="Trazado_9373" data-name="Trazado 9373" d="M1123.187,3808.644a5.41,5.41,0,0,1-4.12-1.59,6.153,6.153,0,0,1-1.509-4.415,6.824,6.824,0,0,1,1.4-4.522,4.656,4.656,0,0,1,3.765-1.676,4.442,4.442,0,0,1,3.5,1.456,5.579,5.579,0,0,1,1.289,3.84v1.128h-8.11a4.657,4.657,0,0,0,1.047,3.147,3.618,3.618,0,0,0,2.8,1.075,9.481,9.481,0,0,0,3.76-.795v1.59a9.421,9.421,0,0,1-1.788.585A10.079,10.079,0,0,1,1123.187,3808.644Zm-.483-10.71a2.912,2.912,0,0,0-2.262.924,4.258,4.258,0,0,0-.993,2.557h6.155a3.924,3.924,0,0,0-.752-2.584A2.649,2.649,0,0,0,1122.7,3797.934Z"/>
      <path id="Trazado_9374" data-name="Trazado 9374" d="M1135.927,3796.441a6.953,6.953,0,0,1,1.407.129l-.247,1.654a6.086,6.086,0,0,0-1.289-.161,3.14,3.14,0,0,0-2.444,1.16,4.236,4.236,0,0,0-1.015,2.89v6.316h-1.783v-11.773h1.472l.2,2.181h.086a5.188,5.188,0,0,1,1.579-1.773A3.556,3.556,0,0,1,1135.927,3796.441Z"/>
      <path id="Trazado_9375" data-name="Trazado 9375" d="M1144.908,3796.441a6.965,6.965,0,0,1,1.407.129l-.247,1.654a6.092,6.092,0,0,0-1.289-.161,3.139,3.139,0,0,0-2.444,1.16,4.231,4.231,0,0,0-1.015,2.89v6.316h-1.783v-11.773h1.471l.2,2.181h.086a5.188,5.188,0,0,1,1.579-1.773A3.559,3.559,0,0,1,1144.908,3796.441Z"/>
      <path id="Trazado_9376" data-name="Trazado 9376" d="M1155.757,3808.429l-.354-1.675h-.086a4.959,4.959,0,0,1-1.757,1.5,5.357,5.357,0,0,1-2.186.392,3.933,3.933,0,0,1-2.744-.9,3.289,3.289,0,0,1-.994-2.567q0-3.567,5.7-3.739l2-.064v-.731a2.982,2.982,0,0,0-.6-2.046,2.453,2.453,0,0,0-1.907-.661,7.767,7.767,0,0,0-3.33.9l-.548-1.365a8.4,8.4,0,0,1,1.907-.741,8.262,8.262,0,0,1,2.079-.268,4.483,4.483,0,0,1,3.12.934,3.9,3.9,0,0,1,1.016,3v8.035Zm-4.028-1.256a3.624,3.624,0,0,0,2.616-.913,3.381,3.381,0,0,0,.95-2.557v-1.064l-1.783.076a6.49,6.49,0,0,0-3.067.66,2,2,0,0,0-.94,1.821,1.835,1.835,0,0,0,.586,1.472A2.427,2.427,0,0,0,1151.729,3807.173Z"/>
    </g>
    <g id="Grupo_9201" data-name="Grupo 9201">
      <path id="Trazado_9377" data-name="Trazado 9377" d="M1018.858,3888.874a5.132,5.132,0,0,0-4.087,1.724,6.954,6.954,0,0,0-1.5,4.721,7.092,7.092,0,0,0,1.445,4.764,5.136,5.136,0,0,0,4.12,1.681,14.055,14.055,0,0,0,3.749-.59v1.6a11.555,11.555,0,0,1-4.028.612,6.811,6.811,0,0,1-5.355-2.1,8.668,8.668,0,0,1-1.886-5.983,9.444,9.444,0,0,1,.908-4.254,6.516,6.516,0,0,1,2.621-2.815,7.942,7.942,0,0,1,4.034-.988,9.739,9.739,0,0,1,4.318.9l-.773,1.569A8.322,8.322,0,0,0,1018.858,3888.874Z"/>
      <path id="Trazado_9378" data-name="Trazado 9378" d="M1035.906,3897.274a6.5,6.5,0,0,1-1.45,4.5,5.107,5.107,0,0,1-4.007,1.616,5.311,5.311,0,0,1-2.8-.741,4.893,4.893,0,0,1-1.89-2.127,7.414,7.414,0,0,1-.666-3.244,6.489,6.489,0,0,1,1.439-4.485,5.094,5.094,0,0,1,4-1.606,4.983,4.983,0,0,1,3.927,1.644A6.469,6.469,0,0,1,1035.906,3897.274Zm-8.97,0a5.587,5.587,0,0,0,.9,3.438,3.582,3.582,0,0,0,5.312.005,5.561,5.561,0,0,0,.908-3.443,5.471,5.471,0,0,0-.908-3.41,3.19,3.19,0,0,0-2.68-1.166,3.139,3.139,0,0,0-2.643,1.149A5.537,5.537,0,0,0,1026.936,3897.274Z"/>
      <path id="Trazado_9379" data-name="Trazado 9379" d="M1047.089,3903.172v-7.617a3.077,3.077,0,0,0-.655-2.148,2.669,2.669,0,0,0-2.052-.709,3.384,3.384,0,0,0-2.707,1,5.044,5.044,0,0,0-.86,3.3v6.177h-1.783V3891.4h1.45l.29,1.612h.086a3.648,3.648,0,0,1,1.536-1.349,5,5,0,0,1,2.2-.478,4.475,4.475,0,0,1,3.2,1.026,4.367,4.367,0,0,1,1.074,3.282v7.681Z"/>
      <path id="Trazado_9380" data-name="Trazado 9380" d="M1057.509,3903.386a5.41,5.41,0,0,1-4.12-1.589,6.157,6.157,0,0,1-1.509-4.415,6.825,6.825,0,0,1,1.4-4.523,4.656,4.656,0,0,1,3.765-1.676,4.443,4.443,0,0,1,3.5,1.456,5.581,5.581,0,0,1,1.289,3.84v1.128h-8.111a4.666,4.666,0,0,0,1.048,3.148,3.621,3.621,0,0,0,2.8,1.074,9.482,9.482,0,0,0,3.76-.8v1.59a9.4,9.4,0,0,1-1.789.585A10.061,10.061,0,0,1,1057.509,3903.386Zm-.484-10.709a2.914,2.914,0,0,0-2.261.923,4.269,4.269,0,0,0-.994,2.557h6.156a3.926,3.926,0,0,0-.752-2.584A2.651,2.651,0,0,0,1057.025,3892.677Z"/>
      <path id="Trazado_9381" data-name="Trazado 9381" d="M1067.714,3897.145l-4.093-5.747h2.03l3.1,4.512,3.094-4.512h2.008l-4.092,5.747,4.307,6.027h-2.019l-3.3-4.77-3.33,4.77h-2.02Z"/>
      <path id="Trazado_9382" data-name="Trazado 9382" d="M1076.254,3888.208a1.183,1.183,0,0,1,.3-.9,1.112,1.112,0,0,1,1.493,0,1.167,1.167,0,0,1,.311.892,1.184,1.184,0,0,1-.311.9,1.04,1.04,0,0,1-.741.295,1.028,1.028,0,0,1-.752-.295A1.2,1.2,0,0,1,1076.254,3888.208Zm1.933,14.964H1076.4V3891.4h1.783Z"/>
      <path id="Trazado_9383" data-name="Trazado 9383" d="M1092.131,3897.274a6.5,6.5,0,0,1-1.45,4.5,5.108,5.108,0,0,1-4.007,1.616,5.308,5.308,0,0,1-2.8-.741,4.895,4.895,0,0,1-1.891-2.127,7.414,7.414,0,0,1-.666-3.244,6.484,6.484,0,0,1,1.44-4.485,5.092,5.092,0,0,1,4-1.606,4.979,4.979,0,0,1,3.926,1.644A6.465,6.465,0,0,1,1092.131,3897.274Zm-8.97,0a5.594,5.594,0,0,0,.9,3.438,3.582,3.582,0,0,0,5.312.005,5.555,5.555,0,0,0,.908-3.443,5.465,5.465,0,0,0-.908-3.41,3.189,3.189,0,0,0-2.68-1.166,3.138,3.138,0,0,0-2.642,1.149A5.531,5.531,0,0,0,1083.161,3897.274Zm2.063-7.7q.515-.666,1.111-1.611a18.132,18.132,0,0,0,.94-1.644h2.17v.226a15.762,15.762,0,0,1-1.407,1.718,16.033,16.033,0,0,1-1.622,1.58h-1.192Z"/>
      <path id="Trazado_9384" data-name="Trazado 9384" d="M1103.313,3903.172v-7.617a3.072,3.072,0,0,0-.655-2.148,2.669,2.669,0,0,0-2.052-.709,3.385,3.385,0,0,0-2.707,1,5.045,5.045,0,0,0-.859,3.3v6.177h-1.783V3891.4h1.45l.29,1.612h.086a3.636,3.636,0,0,1,1.536-1.349,5,5,0,0,1,2.2-.478,4.475,4.475,0,0,1,3.2,1.026,4.367,4.367,0,0,1,1.075,3.282v7.681Z"/>
      <path id="Trazado_9385" data-name="Trazado 9385" d="M1119.448,3903.386a5.408,5.408,0,0,1-4.119-1.589,6.153,6.153,0,0,1-1.51-4.415,6.83,6.83,0,0,1,1.4-4.523,4.659,4.659,0,0,1,3.765-1.676,4.441,4.441,0,0,1,3.5,1.456,5.576,5.576,0,0,1,1.289,3.84v1.128h-8.11a4.671,4.671,0,0,0,1.047,3.148,3.625,3.625,0,0,0,2.8,1.074,9.48,9.48,0,0,0,3.759-.8v1.59a9.421,9.421,0,0,1-1.788.585A10.073,10.073,0,0,1,1119.448,3903.386Zm-.483-10.709a2.913,2.913,0,0,0-2.261.923,4.258,4.258,0,0,0-.994,2.557h6.155a3.927,3.927,0,0,0-.752-2.584A2.648,2.648,0,0,0,1118.965,3892.677Z"/>
      <path id="Trazado_9386" data-name="Trazado 9386" d="M1134.874,3903.172v-7.617a3.077,3.077,0,0,0-.655-2.148,2.669,2.669,0,0,0-2.052-.709,3.384,3.384,0,0,0-2.707,1,5.045,5.045,0,0,0-.859,3.3v6.177h-1.784V3891.4h1.451l.29,1.612h.086a3.636,3.636,0,0,1,1.536-1.349,5,5,0,0,1,2.2-.478,4.475,4.475,0,0,1,3.2,1.026,4.368,4.368,0,0,1,1.074,3.282v7.681Z"/>
      <path id="Trazado_9387" data-name="Trazado 9387" d="M1144.123,3901.915a6.354,6.354,0,0,0,1.611-.215v1.364a3.265,3.265,0,0,1-.854.231,6.388,6.388,0,0,1-1.015.091q-3.415,0-3.416-3.6v-7h-1.686v-.859l1.686-.742.752-2.513h1.031v2.728h3.416v1.386h-3.416v6.929a2.383,2.383,0,0,0,.505,1.632A1.757,1.757,0,0,0,1144.123,3901.915Z"/>
      <path id="Trazado_9388" data-name="Trazado 9388" d="M1153.458,3891.183a6.972,6.972,0,0,1,1.407.129l-.247,1.655a6.037,6.037,0,0,0-1.289-.162,3.138,3.138,0,0,0-2.444,1.161,4.226,4.226,0,0,0-1.015,2.889v6.317h-1.783V3891.4h1.472l.2,2.181h.086a5.176,5.176,0,0,1,1.579-1.773A3.557,3.557,0,0,1,1153.458,3891.183Z"/>
      <path id="Trazado_9389" data-name="Trazado 9389" d="M1162.041,3903.386a5.41,5.41,0,0,1-4.12-1.589,6.157,6.157,0,0,1-1.509-4.415,6.825,6.825,0,0,1,1.4-4.523,4.656,4.656,0,0,1,3.765-1.676,4.442,4.442,0,0,1,3.5,1.456,5.581,5.581,0,0,1,1.289,3.84v1.128h-8.11a4.666,4.666,0,0,0,1.047,3.148,3.621,3.621,0,0,0,2.8,1.074,9.481,9.481,0,0,0,3.76-.8v1.59a9.421,9.421,0,0,1-1.788.585A10.079,10.079,0,0,1,1162.041,3903.386Zm-.483-10.709a2.915,2.915,0,0,0-2.262.923,4.263,4.263,0,0,0-.993,2.557h6.155a3.927,3.927,0,0,0-.752-2.584A2.649,2.649,0,0,0,1161.558,3892.677Z"/>
      <path id="Trazado_9390" data-name="Trazado 9390" d="M1180.1,3903.386a5.408,5.408,0,0,1-4.12-1.589,6.157,6.157,0,0,1-1.509-4.415,6.825,6.825,0,0,1,1.4-4.523,4.656,4.656,0,0,1,3.765-1.676,4.443,4.443,0,0,1,3.5,1.456,5.581,5.581,0,0,1,1.289,3.84v1.128h-8.111a4.666,4.666,0,0,0,1.048,3.148,3.621,3.621,0,0,0,2.8,1.074,9.481,9.481,0,0,0,3.76-.8v1.59a9.429,9.429,0,0,1-1.789.585A10.062,10.062,0,0,1,1180.1,3903.386Zm-.484-10.709a2.914,2.914,0,0,0-2.261.923,4.27,4.27,0,0,0-.994,2.557h6.156a3.927,3.927,0,0,0-.752-2.584A2.652,2.652,0,0,0,1179.615,3892.677Z"/>
      <path id="Trazado_9391" data-name="Trazado 9391" d="M1189.251,3903.172h-1.783v-16.715h1.783Z"/>
      <path id="Trazado_9392" data-name="Trazado 9392" d="M1203.452,3903.386a5.023,5.023,0,0,1-3.958-1.573,6.469,6.469,0,0,1-1.4-4.453,6.672,6.672,0,0,1,1.423-4.565,5.123,5.123,0,0,1,4.055-1.612,8.032,8.032,0,0,1,1.7.183,5.623,5.623,0,0,1,1.332.43l-.548,1.514a8.486,8.486,0,0,0-1.289-.392,5.818,5.818,0,0,0-1.236-.156q-3.588,0-3.588,4.577a5.449,5.449,0,0,0,.876,3.33,3.047,3.047,0,0,0,2.594,1.16,7.931,7.931,0,0,0,3.019-.634v1.579A6.439,6.439,0,0,1,1203.452,3903.386Z"/>
      <path id="Trazado_9393" data-name="Trazado 9393" d="M1219.383,3897.274a6.5,6.5,0,0,1-1.45,4.5,5.108,5.108,0,0,1-4.007,1.616,5.309,5.309,0,0,1-2.8-.741,4.9,4.9,0,0,1-1.891-2.127,7.414,7.414,0,0,1-.666-3.244,6.485,6.485,0,0,1,1.44-4.485,5.094,5.094,0,0,1,4-1.606,4.979,4.979,0,0,1,3.926,1.644A6.465,6.465,0,0,1,1219.383,3897.274Zm-8.97,0a5.594,5.594,0,0,0,.9,3.438,3.582,3.582,0,0,0,5.312.005,5.554,5.554,0,0,0,.908-3.443,5.464,5.464,0,0,0-.908-3.41,3.188,3.188,0,0,0-2.68-1.166,3.138,3.138,0,0,0-2.642,1.149A5.53,5.53,0,0,0,1210.413,3897.274Z"/>
      <path id="Trazado_9394" data-name="Trazado 9394" d="M1230.565,3903.172v-7.617a3.072,3.072,0,0,0-.655-2.148,2.67,2.67,0,0,0-2.052-.709,3.385,3.385,0,0,0-2.707,1,5.045,5.045,0,0,0-.859,3.3v6.177h-1.783V3891.4h1.45l.29,1.612h.086a3.637,3.637,0,0,1,1.536-1.349,5,5,0,0,1,2.2-.478,4.475,4.475,0,0,1,3.2,1.026,4.368,4.368,0,0,1,1.075,3.282v7.681Z"/>
      <path id="Trazado_9395" data-name="Trazado 9395" d="M1244.025,3901.593h-.1a4.191,4.191,0,0,1-3.7,1.793,4.371,4.371,0,0,1-3.593-1.579,6.947,6.947,0,0,1-1.284-4.49,7.07,7.07,0,0,1,1.289-4.522,4.338,4.338,0,0,1,3.588-1.612,4.279,4.279,0,0,1,3.674,1.741h.14l-.075-.849-.043-.827v-4.791h1.783v16.715h-1.45Zm-3.566.3a3.249,3.249,0,0,0,2.648-.993,5.019,5.019,0,0,0,.822-3.207v-.376a5.909,5.909,0,0,0-.833-3.572,3.162,3.162,0,0,0-2.659-1.068,2.728,2.728,0,0,0-2.4,1.219,6.063,6.063,0,0,0-.833,3.443,5.813,5.813,0,0,0,.827,3.4A2.8,2.8,0,0,0,1240.459,3901.893Z"/>
      <path id="Trazado_9396" data-name="Trazado 9396" d="M1251.169,3891.4v7.638a3.07,3.07,0,0,0,.655,2.148,2.669,2.669,0,0,0,2.052.709,3.35,3.35,0,0,0,2.7-1.009,5.1,5.1,0,0,0,.854-3.3V3891.4h1.783v11.774h-1.472l-.258-1.579h-.1a3.561,3.561,0,0,1-1.52,1.332,5.13,5.13,0,0,1-2.219.461,4.5,4.5,0,0,1-3.217-1.02,4.342,4.342,0,0,1-1.069-3.266v-7.7Z"/>
      <path id="Trazado_9397" data-name="Trazado 9397" d="M1267.7,3903.386a5.023,5.023,0,0,1-3.958-1.573,6.469,6.469,0,0,1-1.4-4.453,6.672,6.672,0,0,1,1.423-4.565,5.123,5.123,0,0,1,4.055-1.612,8.032,8.032,0,0,1,1.7.183,5.623,5.623,0,0,1,1.332.43l-.548,1.514a8.486,8.486,0,0,0-1.289-.392,5.818,5.818,0,0,0-1.236-.156q-3.588,0-3.588,4.577a5.449,5.449,0,0,0,.876,3.33,3.047,3.047,0,0,0,2.594,1.16,7.932,7.932,0,0,0,3.019-.634v1.579A6.439,6.439,0,0,1,1267.7,3903.386Z"/>
      <path id="Trazado_9398" data-name="Trazado 9398" d="M1277.272,3901.915a5.744,5.744,0,0,0,.913-.07,5.8,5.8,0,0,0,.7-.145v1.364a3.278,3.278,0,0,1-.854.231,6.4,6.4,0,0,1-1.015.091q-3.417,0-3.416-3.6v-7h-1.687v-.859l1.687-.742.752-2.513h1.031v2.728h3.416v1.386h-3.416v6.929a2.378,2.378,0,0,0,.505,1.632A1.754,1.754,0,0,0,1277.272,3901.915Z"/>
      <path id="Trazado_9399" data-name="Trazado 9399" d="M1291.4,3897.274a6.494,6.494,0,0,1-1.45,4.5,5.106,5.106,0,0,1-4.007,1.616,5.308,5.308,0,0,1-2.8-.741,4.89,4.89,0,0,1-1.891-2.127,7.414,7.414,0,0,1-.666-3.244,6.489,6.489,0,0,1,1.439-4.485,5.094,5.094,0,0,1,4-1.606,4.98,4.98,0,0,1,3.926,1.644A6.469,6.469,0,0,1,1291.4,3897.274Zm-8.969,0a5.586,5.586,0,0,0,.9,3.438,3.582,3.582,0,0,0,5.312.005,5.56,5.56,0,0,0,.908-3.443,5.47,5.47,0,0,0-.908-3.41,3.19,3.19,0,0,0-2.68-1.166,3.142,3.142,0,0,0-2.643,1.149A5.538,5.538,0,0,0,1282.429,3897.274Z"/>
      <path id="Trazado_9400" data-name="Trazado 9400" d="M1299.9,3891.183a6.989,6.989,0,0,1,1.408.129l-.247,1.655a6.037,6.037,0,0,0-1.289-.162,3.135,3.135,0,0,0-2.444,1.161,4.226,4.226,0,0,0-1.015,2.889v6.317h-1.784V3891.4H1296l.2,2.181h.086a5.186,5.186,0,0,1,1.579-1.773A3.56,3.56,0,0,1,1299.9,3891.183Z"/>
      <path id="Trazado_9401" data-name="Trazado 9401" d="M1019.879,3927.992h-.1a4.186,4.186,0,0,1-3.7,1.794,4.369,4.369,0,0,1-3.593-1.579,6.947,6.947,0,0,1-1.284-4.49,7.07,7.07,0,0,1,1.289-4.522,4.335,4.335,0,0,1,3.588-1.612,4.283,4.283,0,0,1,3.674,1.74h.139l-.075-.848-.043-.827v-4.791h1.783v16.715h-1.45Zm-3.567.3a3.246,3.246,0,0,0,2.648-.993,5.021,5.021,0,0,0,.822-3.207v-.376a5.911,5.911,0,0,0-.832-3.572,3.165,3.165,0,0,0-2.659-1.069,2.729,2.729,0,0,0-2.4,1.22,6.063,6.063,0,0,0-.832,3.443,5.809,5.809,0,0,0,.827,3.405A2.8,2.8,0,0,0,1016.312,3928.293Z"/>
      <path id="Trazado_9402" data-name="Trazado 9402" d="M1030.32,3929.786a5.406,5.406,0,0,1-4.119-1.589,6.153,6.153,0,0,1-1.51-4.416,6.829,6.829,0,0,1,1.4-4.522,4.658,4.658,0,0,1,3.765-1.676,4.44,4.44,0,0,1,3.5,1.456,5.575,5.575,0,0,1,1.289,3.84v1.128h-8.11a4.671,4.671,0,0,0,1.047,3.148,3.625,3.625,0,0,0,2.8,1.074,9.481,9.481,0,0,0,3.759-.795v1.59a9.422,9.422,0,0,1-1.788.585A10.055,10.055,0,0,1,1030.32,3929.786Zm-.483-10.71a2.915,2.915,0,0,0-2.261.924,4.251,4.251,0,0,0-.994,2.557h6.155a3.921,3.921,0,0,0-.752-2.584A2.649,2.649,0,0,0,1029.837,3919.076Z"/>
      <path id="Trazado_9403" data-name="Trazado 9403" d="M1047.207,3928.315a5.789,5.789,0,0,0,.913-.07,6.083,6.083,0,0,0,.7-.145v1.364a3.275,3.275,0,0,1-.854.231,6.385,6.385,0,0,1-1.015.091q-3.415,0-3.416-3.6v-7h-1.686v-.86l1.686-.741.752-2.513h1.031v2.728h3.416v1.386h-3.416v6.929a2.384,2.384,0,0,0,.505,1.632A1.757,1.757,0,0,0,1047.207,3928.315Z"/>
      <path id="Trazado_9404" data-name="Trazado 9404" d="M1051.02,3914.608a1.185,1.185,0,0,1,.3-.9,1.113,1.113,0,0,1,1.493.005,1.162,1.162,0,0,1,.312.892,1.18,1.18,0,0,1-.312.9,1.091,1.091,0,0,1-1.493,0A1.208,1.208,0,0,1,1051.02,3914.608Zm1.934,14.964h-1.783V3917.8h1.783Z"/>
      <path id="Trazado_9405" data-name="Trazado 9405" d="M1061.709,3929.786a5.409,5.409,0,0,1-4.12-1.589,6.157,6.157,0,0,1-1.509-4.416,6.823,6.823,0,0,1,1.4-4.522,4.656,4.656,0,0,1,3.765-1.676,4.442,4.442,0,0,1,3.5,1.456,5.58,5.58,0,0,1,1.289,3.84v1.128h-8.11a4.667,4.667,0,0,0,1.047,3.148,3.621,3.621,0,0,0,2.8,1.074,9.481,9.481,0,0,0,3.76-.795v1.59a9.421,9.421,0,0,1-1.788.585A10.062,10.062,0,0,1,1061.709,3929.786Zm-.483-10.71a2.916,2.916,0,0,0-2.262.924,4.258,4.258,0,0,0-.993,2.557h6.155a3.927,3.927,0,0,0-.752-2.584A2.65,2.65,0,0,0,1061.226,3919.076Z"/>
      <path id="Trazado_9406" data-name="Trazado 9406" d="M1074.449,3917.583a6.97,6.97,0,0,1,1.407.129l-.247,1.654a6.1,6.1,0,0,0-1.289-.161,3.141,3.141,0,0,0-2.444,1.16,4.236,4.236,0,0,0-1.015,2.89v6.317h-1.783V3917.8h1.472l.2,2.181h.086a5.185,5.185,0,0,1,1.579-1.773A3.556,3.556,0,0,1,1074.449,3917.583Z"/>
      <path id="Trazado_9407" data-name="Trazado 9407" d="M1083.43,3917.583a6.985,6.985,0,0,1,1.407.129l-.247,1.654a6.106,6.106,0,0,0-1.289-.161,3.139,3.139,0,0,0-2.444,1.16,4.231,4.231,0,0,0-1.015,2.89v6.317h-1.783V3917.8h1.471l.2,2.181h.086a5.184,5.184,0,0,1,1.579-1.773A3.559,3.559,0,0,1,1083.43,3917.583Z"/>
      <path id="Trazado_9408" data-name="Trazado 9408" d="M1094.279,3929.572l-.354-1.676h-.086a4.941,4.941,0,0,1-1.757,1.5,5.341,5.341,0,0,1-2.186.392,3.928,3.928,0,0,1-2.744-.9,3.29,3.29,0,0,1-.994-2.567q0-3.567,5.7-3.739l2-.064v-.731a2.982,2.982,0,0,0-.6-2.046,2.454,2.454,0,0,0-1.907-.661,7.765,7.765,0,0,0-3.33.9l-.548-1.365a8.449,8.449,0,0,1,1.907-.741,8.307,8.307,0,0,1,2.079-.268,4.483,4.483,0,0,1,3.12.934,3.9,3.9,0,0,1,1.016,3v8.036Zm-4.028-1.257a3.624,3.624,0,0,0,2.616-.913,3.382,3.382,0,0,0,.95-2.557v-1.064l-1.783.076a6.489,6.489,0,0,0-3.067.66,1.994,1.994,0,0,0-.94,1.821,1.836,1.836,0,0,0,.586,1.472A2.427,2.427,0,0,0,1090.251,3928.315Z"/>
      <path id="Trazado_9409" data-name="Trazado 9409" d="M1103.12,3917.8h1.912l2.578,6.714a25.518,25.518,0,0,1,1.053,3.319h.086q.14-.547.585-1.874t2.917-8.159h1.912l-5.06,13.406a6.68,6.68,0,0,1-1.756,2.82,3.734,3.734,0,0,1-2.465.833,7.171,7.171,0,0,1-1.612-.183v-1.429a6.223,6.223,0,0,0,1.322.129,2.724,2.724,0,0,0,2.621-2.062l.655-1.676Z"/>
      <path id="Trazado_9410" data-name="Trazado 9410" d="M1126.764,3929.786a5.407,5.407,0,0,1-4.12-1.589,6.157,6.157,0,0,1-1.509-4.416,6.824,6.824,0,0,1,1.4-4.522,4.656,4.656,0,0,1,3.765-1.676,4.443,4.443,0,0,1,3.5,1.456,5.58,5.58,0,0,1,1.289,3.84v1.128h-8.111a4.666,4.666,0,0,0,1.048,3.148,3.621,3.621,0,0,0,2.8,1.074,9.482,9.482,0,0,0,3.76-.795v1.59a9.43,9.43,0,0,1-1.789.585A10.043,10.043,0,0,1,1126.764,3929.786Zm-.484-10.71a2.915,2.915,0,0,0-2.261.924,4.264,4.264,0,0,0-.994,2.557h6.156a3.926,3.926,0,0,0-.752-2.584A2.652,2.652,0,0,0,1126.28,3919.076Z"/>
      <path id="Trazado_9411" data-name="Trazado 9411" d="M1135.916,3929.572h-1.783v-16.715h1.783Z"/>
      <path id="Trazado_9412" data-name="Trazado 9412" d="M1150.386,3929.786a5.407,5.407,0,0,1-4.12-1.589,6.157,6.157,0,0,1-1.509-4.416,6.823,6.823,0,0,1,1.4-4.522,4.656,4.656,0,0,1,3.765-1.676,4.443,4.443,0,0,1,3.5,1.456,5.58,5.58,0,0,1,1.289,3.84v1.128H1146.6a4.667,4.667,0,0,0,1.048,3.148,3.621,3.621,0,0,0,2.8,1.074,9.481,9.481,0,0,0,3.76-.795v1.59a9.429,9.429,0,0,1-1.789.585A10.045,10.045,0,0,1,1150.386,3929.786Zm-.484-10.71a2.915,2.915,0,0,0-2.261.924,4.265,4.265,0,0,0-.994,2.557h6.156a3.927,3.927,0,0,0-.752-2.584A2.652,2.652,0,0,0,1149.9,3919.076Z"/>
      <path id="Trazado_9413" data-name="Trazado 9413" d="M1159.538,3929.572h-1.783v-16.715h1.783Z"/>
      <path id="Trazado_9414" data-name="Trazado 9414" d="M1168.293,3929.786a5.409,5.409,0,0,1-4.12-1.589,6.157,6.157,0,0,1-1.509-4.416,6.823,6.823,0,0,1,1.4-4.522,4.656,4.656,0,0,1,3.765-1.676,4.442,4.442,0,0,1,3.5,1.456,5.58,5.58,0,0,1,1.289,3.84v1.128h-8.11a4.667,4.667,0,0,0,1.047,3.148,3.622,3.622,0,0,0,2.8,1.074,9.481,9.481,0,0,0,3.76-.795v1.59a9.419,9.419,0,0,1-1.788.585A10.062,10.062,0,0,1,1168.293,3929.786Zm-.483-10.71a2.916,2.916,0,0,0-2.262.924,4.257,4.257,0,0,0-.993,2.557h6.155a3.927,3.927,0,0,0-.752-2.584A2.65,2.65,0,0,0,1167.81,3919.076Z"/>
      <path id="Trazado_9415" data-name="Trazado 9415" d="M1180.367,3929.786a5.023,5.023,0,0,1-3.958-1.573,6.47,6.47,0,0,1-1.4-4.453,6.671,6.671,0,0,1,1.423-4.565,5.123,5.123,0,0,1,4.055-1.612,8.033,8.033,0,0,1,1.7.183,5.6,5.6,0,0,1,1.332.43l-.548,1.514a8.491,8.491,0,0,0-1.289-.392,5.818,5.818,0,0,0-1.236-.156q-3.588,0-3.588,4.577a5.449,5.449,0,0,0,.876,3.33,3.047,3.047,0,0,0,2.594,1.16,7.927,7.927,0,0,0,3.019-.634v1.579A6.439,6.439,0,0,1,1180.367,3929.786Z"/>
      <path id="Trazado_9416" data-name="Trazado 9416" d="M1189.938,3928.315a5.794,5.794,0,0,0,.914-.07,6.129,6.129,0,0,0,.7-.145v1.364a3.288,3.288,0,0,1-.854.231,6.4,6.4,0,0,1-1.015.091q-3.417,0-3.416-3.6v-7h-1.687v-.86l1.687-.741.752-2.513h1.031v2.728h3.416v1.386h-3.416v6.929a2.379,2.379,0,0,0,.505,1.632A1.754,1.754,0,0,0,1189.938,3928.315Z"/>
      <path id="Trazado_9417" data-name="Trazado 9417" d="M1199.273,3917.583a6.989,6.989,0,0,1,1.408.129l-.247,1.654a6.115,6.115,0,0,0-1.29-.161,3.137,3.137,0,0,0-2.443,1.16,4.232,4.232,0,0,0-1.016,2.89v6.317H1193.9V3917.8h1.472l.2,2.181h.086a5.184,5.184,0,0,1,1.579-1.773A3.558,3.558,0,0,1,1199.273,3917.583Z"/>
      <path id="Trazado_9418" data-name="Trazado 9418" d="M1213.045,3923.674a6.5,6.5,0,0,1-1.45,4.5,5.107,5.107,0,0,1-4.007,1.616,5.308,5.308,0,0,1-2.8-.741,4.89,4.89,0,0,1-1.89-2.127,7.4,7.4,0,0,1-.667-3.244,6.485,6.485,0,0,1,1.44-4.485,5.094,5.094,0,0,1,4-1.606,4.979,4.979,0,0,1,3.926,1.644A6.463,6.463,0,0,1,1213.045,3923.674Zm-8.97,0a5.594,5.594,0,0,0,.9,3.438,3.583,3.583,0,0,0,5.313,0,5.561,5.561,0,0,0,.907-3.443,5.474,5.474,0,0,0-.907-3.411,3.2,3.2,0,0,0-2.681-1.165,3.138,3.138,0,0,0-2.642,1.149A5.529,5.529,0,0,0,1204.075,3923.674Z"/>
      <path id="Trazado_9419" data-name="Trazado 9419" d="M1224.185,3927.992h-.1a4.189,4.189,0,0,1-3.7,1.794,4.372,4.372,0,0,1-3.594-1.579,6.953,6.953,0,0,1-1.283-4.49,7.063,7.063,0,0,1,1.289-4.522,4.335,4.335,0,0,1,3.588-1.612,4.281,4.281,0,0,1,3.673,1.74h.14l-.075-.848-.043-.827v-4.791h1.783v16.715h-1.45Zm-3.567.3a3.247,3.247,0,0,0,2.648-.993,5.021,5.021,0,0,0,.822-3.207v-.376a5.91,5.91,0,0,0-.833-3.572,3.163,3.163,0,0,0-2.658-1.069,2.729,2.729,0,0,0-2.4,1.22,6.062,6.062,0,0,0-.833,3.443,5.817,5.817,0,0,0,.827,3.405A2.8,2.8,0,0,0,1220.618,3928.293Z"/>
      <path id="Trazado_9420" data-name="Trazado 9420" d="M1239.814,3923.674a6.5,6.5,0,0,1-1.45,4.5,5.106,5.106,0,0,1-4.007,1.616,5.306,5.306,0,0,1-2.8-.741,4.888,4.888,0,0,1-1.891-2.127,7.413,7.413,0,0,1-.666-3.244,6.489,6.489,0,0,1,1.439-4.485,5.094,5.094,0,0,1,4-1.606,4.981,4.981,0,0,1,3.926,1.644A6.468,6.468,0,0,1,1239.814,3923.674Zm-8.969,0a5.588,5.588,0,0,0,.9,3.438,3.582,3.582,0,0,0,5.312,0,5.56,5.56,0,0,0,.908-3.443,5.474,5.474,0,0,0-.908-3.411,3.192,3.192,0,0,0-2.68-1.165,3.141,3.141,0,0,0-2.643,1.149A5.537,5.537,0,0,0,1230.845,3923.674Z"/>
    </g>
    <g id="Grupo_9202" data-name="Grupo 9202">
      <path id="Trazado_9421" data-name="Trazado 9421" d="M1020.889,4031.971h-8.755v-15.7h8.755v1.622h-6.929v5.06h6.51v1.611h-6.51v5.78h6.929Z"/>
      <path id="Trazado_9422" data-name="Trazado 9422" d="M1025.884,4031.971H1024.1v-16.714h1.783Z"/>
      <path id="Trazado_9423" data-name="Trazado 9423" d="M1034.639,4032.186a5.408,5.408,0,0,1-4.12-1.59,6.152,6.152,0,0,1-1.509-4.415,6.824,6.824,0,0,1,1.4-4.522,4.656,4.656,0,0,1,3.765-1.676,4.44,4.44,0,0,1,3.5,1.456,5.579,5.579,0,0,1,1.289,3.84v1.128h-8.111a4.661,4.661,0,0,0,1.048,3.147,3.618,3.618,0,0,0,2.8,1.075,9.482,9.482,0,0,0,3.76-.795v1.59a9.43,9.43,0,0,1-1.789.585A10.061,10.061,0,0,1,1034.639,4032.186Zm-.484-10.71a2.911,2.911,0,0,0-2.261.924,4.265,4.265,0,0,0-.994,2.557h6.156a3.924,3.924,0,0,0-.752-2.584A2.651,2.651,0,0,0,1034.155,4021.476Z"/>
      <path id="Trazado_9424" data-name="Trazado 9424" d="M1046.713,4032.186a5.025,5.025,0,0,1-3.959-1.573,6.475,6.475,0,0,1-1.4-4.453,6.676,6.676,0,0,1,1.424-4.566,5.125,5.125,0,0,1,4.055-1.611,8.023,8.023,0,0,1,1.7.183,5.631,5.631,0,0,1,1.332.429l-.548,1.515a8.392,8.392,0,0,0-1.289-.392,5.74,5.74,0,0,0-1.235-.156q-3.588,0-3.588,4.576a5.444,5.444,0,0,0,.876,3.33,3.044,3.044,0,0,0,2.594,1.161,7.922,7.922,0,0,0,3.018-.634v1.579A6.431,6.431,0,0,1,1046.713,4032.186Z"/>
      <path id="Trazado_9425" data-name="Trazado 9425" d="M1056.284,4030.715a5.78,5.78,0,0,0,.913-.07,5.987,5.987,0,0,0,.7-.145v1.364a3.265,3.265,0,0,1-.854.231,6.388,6.388,0,0,1-1.015.091q-3.415,0-3.416-3.6v-7h-1.686v-.86l1.686-.741.752-2.514h1.032v2.729h3.416v1.386h-3.416v6.928a2.386,2.386,0,0,0,.5,1.633A1.758,1.758,0,0,0,1056.284,4030.715Z"/>
      <path id="Trazado_9426" data-name="Trazado 9426" d="M1065.619,4019.983a6.953,6.953,0,0,1,1.407.129l-.247,1.654a6.086,6.086,0,0,0-1.289-.161,3.14,3.14,0,0,0-2.444,1.16,4.236,4.236,0,0,0-1.015,2.89v6.316h-1.783V4020.2h1.472l.2,2.181h.086a5.178,5.178,0,0,1,1.579-1.773A3.556,3.556,0,0,1,1065.619,4019.983Z"/>
      <path id="Trazado_9427" data-name="Trazado 9427" d="M1079.391,4026.074a6.5,6.5,0,0,1-1.451,4.5,5.1,5.1,0,0,1-4.006,1.616,5.308,5.308,0,0,1-2.8-.741,4.889,4.889,0,0,1-1.891-2.127,7.414,7.414,0,0,1-.666-3.244,6.484,6.484,0,0,1,1.44-4.485,5.091,5.091,0,0,1,4-1.606,4.979,4.979,0,0,1,3.926,1.644A6.467,6.467,0,0,1,1079.391,4026.074Zm-8.97,0a5.589,5.589,0,0,0,.9,3.437,3.581,3.581,0,0,0,5.312.006,5.562,5.562,0,0,0,.908-3.443,5.473,5.473,0,0,0-.908-3.411,3.188,3.188,0,0,0-2.68-1.165,3.141,3.141,0,0,0-2.643,1.149A5.537,5.537,0,0,0,1070.421,4026.074Z"/>
      <path id="Trazado_9428" data-name="Trazado 9428" d="M1090.53,4030.392h-.1a4.189,4.189,0,0,1-3.7,1.794,4.37,4.37,0,0,1-3.593-1.579,6.948,6.948,0,0,1-1.284-4.49,7.075,7.075,0,0,1,1.289-4.523,4.34,4.34,0,0,1,3.588-1.611,4.282,4.282,0,0,1,3.674,1.74h.14l-.075-.848-.043-.827v-4.791h1.783v16.714h-1.45Zm-3.566.3a3.246,3.246,0,0,0,2.648-.994,5.018,5.018,0,0,0,.822-3.206v-.376a5.909,5.909,0,0,0-.833-3.572,3.163,3.163,0,0,0-2.659-1.069,2.73,2.73,0,0,0-2.4,1.22,6.06,6.06,0,0,0-.832,3.442,5.816,5.816,0,0,0,.827,3.406A2.8,2.8,0,0,0,1086.964,4030.693Z"/>
      <path id="Trazado_9429" data-name="Trazado 9429" d="M1106.16,4026.074a6.5,6.5,0,0,1-1.45,4.5,5.108,5.108,0,0,1-4.007,1.616,5.31,5.31,0,0,1-2.8-.741,4.893,4.893,0,0,1-1.89-2.127,7.412,7.412,0,0,1-.666-3.244,6.484,6.484,0,0,1,1.439-4.485,5.094,5.094,0,0,1,4-1.606,4.983,4.983,0,0,1,3.927,1.644A6.466,6.466,0,0,1,1106.16,4026.074Zm-8.97,0a5.582,5.582,0,0,0,.9,3.437,3.581,3.581,0,0,0,5.312.006,5.562,5.562,0,0,0,.907-3.443,5.473,5.473,0,0,0-.907-3.411,3.189,3.189,0,0,0-2.68-1.165,3.139,3.139,0,0,0-2.643,1.149A5.537,5.537,0,0,0,1097.19,4026.074Z"/>
      <path id="Trazado_9430" data-name="Trazado 9430" d="M1123.015,4030.392h-.1a4.187,4.187,0,0,1-3.695,1.794,4.372,4.372,0,0,1-3.594-1.579,6.954,6.954,0,0,1-1.283-4.49,7.069,7.069,0,0,1,1.289-4.523,4.337,4.337,0,0,1,3.588-1.611,4.28,4.28,0,0,1,3.673,1.74h.14l-.075-.848-.043-.827v-4.791h1.783v16.714h-1.45Zm-3.567.3a3.244,3.244,0,0,0,2.648-.994,5.017,5.017,0,0,0,.822-3.206v-.376a5.909,5.909,0,0,0-.833-3.572,3.162,3.162,0,0,0-2.658-1.069,2.729,2.729,0,0,0-2.4,1.22,6.06,6.06,0,0,0-.833,3.442,5.816,5.816,0,0,0,.827,3.406A2.8,2.8,0,0,0,1119.448,4030.693Z"/>
      <path id="Trazado_9431" data-name="Trazado 9431" d="M1133.456,4032.186a5.41,5.41,0,0,1-4.12-1.59,6.152,6.152,0,0,1-1.509-4.415,6.823,6.823,0,0,1,1.4-4.522,4.658,4.658,0,0,1,3.765-1.676,4.438,4.438,0,0,1,3.5,1.456,5.579,5.579,0,0,1,1.289,3.84v1.128h-8.11a4.666,4.666,0,0,0,1.047,3.147,3.618,3.618,0,0,0,2.8,1.075,9.482,9.482,0,0,0,3.76-.795v1.59a9.422,9.422,0,0,1-1.788.585A10.079,10.079,0,0,1,1133.456,4032.186Zm-.483-10.71a2.913,2.913,0,0,0-2.262.924,4.258,4.258,0,0,0-.993,2.557h6.155a3.924,3.924,0,0,0-.752-2.584A2.648,2.648,0,0,0,1132.973,4021.476Z"/>
      <path id="Trazado_9432" data-name="Trazado 9432" d="M1152.019,4032.186a5.1,5.1,0,0,1-2.1-.424,3.96,3.96,0,0,1-1.595-1.3h-.129a15.759,15.759,0,0,1,.129,1.955v4.845h-1.783V4020.2h1.45l.247,1.611h.086a4.136,4.136,0,0,1,1.6-1.4,4.869,4.869,0,0,1,2.1-.43,4.35,4.35,0,0,1,3.614,1.6,8.524,8.524,0,0,1-.021,9A4.359,4.359,0,0,1,1152.019,4032.186Zm-.258-10.688a3.161,3.161,0,0,0-2.611,1,5.14,5.14,0,0,0-.827,3.18v.4a5.893,5.893,0,0,0,.827,3.55,3.146,3.146,0,0,0,2.654,1.069,2.76,2.76,0,0,0,2.39-1.235,5.862,5.862,0,0,0,.865-3.406,5.641,5.641,0,0,0-.865-3.378A2.845,2.845,0,0,0,1151.761,4021.5Z"/>
      <path id="Trazado_9433" data-name="Trazado 9433" d="M1161.7,4020.2v7.638a3.075,3.075,0,0,0,.655,2.148,2.668,2.668,0,0,0,2.052.709,3.345,3.345,0,0,0,2.7-1.01,5.1,5.1,0,0,0,.854-3.3V4020.2h1.783v11.773h-1.472l-.257-1.579h-.1a3.549,3.549,0,0,1-1.52,1.332,5.11,5.11,0,0,1-2.218.462,4.5,4.5,0,0,1-3.218-1.02,4.346,4.346,0,0,1-1.068-3.266v-7.7Z"/>
      <path id="Trazado_9434" data-name="Trazado 9434" d="M1178.5,4032.186a5.41,5.41,0,0,1-4.12-1.59,6.152,6.152,0,0,1-1.509-4.415,6.824,6.824,0,0,1,1.4-4.522,4.659,4.659,0,0,1,3.765-1.676,4.438,4.438,0,0,1,3.5,1.456,5.579,5.579,0,0,1,1.289,3.84v1.128h-8.11a4.666,4.666,0,0,0,1.047,3.147,3.618,3.618,0,0,0,2.8,1.075,9.482,9.482,0,0,0,3.76-.795v1.59a9.424,9.424,0,0,1-1.788.585A10.081,10.081,0,0,1,1178.5,4032.186Zm-.483-10.71a2.913,2.913,0,0,0-2.262.924,4.258,4.258,0,0,0-.993,2.557h6.155a3.924,3.924,0,0,0-.752-2.584A2.648,2.648,0,0,0,1178.015,4021.476Z"/>
      <path id="Trazado_9435" data-name="Trazado 9435" d="M1193.462,4028.76a2.949,2.949,0,0,1-1.225,2.535,5.757,5.757,0,0,1-3.437.891,7.48,7.48,0,0,1-3.653-.741v-1.654a8.894,8.894,0,0,0,1.821.677,7.588,7.588,0,0,0,1.875.247,4.251,4.251,0,0,0,2.148-.446,1.535,1.535,0,0,0,.156-2.535,9.382,9.382,0,0,0-2.326-1.155,12.588,12.588,0,0,1-2.336-1.069,3.176,3.176,0,0,1-1.031-1.037,2.7,2.7,0,0,1-.339-1.385,2.643,2.643,0,0,1,1.171-2.272,5.457,5.457,0,0,1,3.212-.833,9.388,9.388,0,0,1,3.717.774l-.634,1.45a8.532,8.532,0,0,0-3.212-.731,3.694,3.694,0,0,0-1.912.4,1.228,1.228,0,0,0-.645,1.095,1.334,1.334,0,0,0,.242.806,2.377,2.377,0,0,0,.779.634,17.271,17.271,0,0,0,2.062.87,7.718,7.718,0,0,1,2.831,1.536A2.709,2.709,0,0,1,1193.462,4028.76Z"/>
      <path id="Trazado_9436" data-name="Trazado 9436" d="M1200.165,4030.715a5.789,5.789,0,0,0,.913-.07,6.031,6.031,0,0,0,.7-.145v1.364a3.265,3.265,0,0,1-.854.231,6.388,6.388,0,0,1-1.015.091q-3.415,0-3.416-3.6v-7h-1.686v-.86l1.686-.741.752-2.514h1.031v2.729h3.416v1.386h-3.416v6.928a2.386,2.386,0,0,0,.505,1.633A1.758,1.758,0,0,0,1200.165,4030.715Z"/>
      <path id="Trazado_9437" data-name="Trazado 9437" d="M1211.369,4031.971l-.354-1.675h-.086a4.95,4.95,0,0,1-1.757,1.5,5.357,5.357,0,0,1-2.186.392,3.933,3.933,0,0,1-2.744-.9,3.289,3.289,0,0,1-.994-2.567q0-3.567,5.7-3.739l2-.064v-.731a2.987,2.987,0,0,0-.6-2.046,2.455,2.455,0,0,0-1.907-.661,7.767,7.767,0,0,0-3.33.9l-.548-1.365a8.388,8.388,0,0,1,1.907-.741,8.262,8.262,0,0,1,2.079-.268,4.485,4.485,0,0,1,3.12.934,3.9,3.9,0,0,1,1.015,3v8.035Zm-4.028-1.256a3.62,3.62,0,0,0,2.615-.913,3.378,3.378,0,0,0,.951-2.557v-1.064l-1.783.076a6.49,6.49,0,0,0-3.067.66,1.993,1.993,0,0,0-.94,1.821,1.836,1.836,0,0,0,.586,1.472A2.426,2.426,0,0,0,1207.341,4030.715Z"/>
      <path id="Trazado_9438" data-name="Trazado 9438" d="M1229.319,4031.971l-.354-1.675h-.086a4.957,4.957,0,0,1-1.756,1.5,5.366,5.366,0,0,1-2.187.392,3.933,3.933,0,0,1-2.744-.9,3.289,3.289,0,0,1-.994-2.567q0-3.567,5.7-3.739l2-.064v-.731a2.982,2.982,0,0,0-.6-2.046,2.453,2.453,0,0,0-1.907-.661,7.767,7.767,0,0,0-3.33.9l-.548-1.365a8.4,8.4,0,0,1,1.907-.741,8.261,8.261,0,0,1,2.079-.268,4.483,4.483,0,0,1,3.12.934,3.9,3.9,0,0,1,1.016,3v8.035Zm-4.028-1.256a3.624,3.624,0,0,0,2.616-.913,3.381,3.381,0,0,0,.95-2.557v-1.064l-1.783.076a6.49,6.49,0,0,0-3.067.66,2,2,0,0,0-.94,1.821,1.835,1.835,0,0,0,.586,1.472A2.426,2.426,0,0,0,1225.291,4030.715Z"/>
      <path id="Trazado_9439" data-name="Trazado 9439" d="M1243.832,4030.715a5.789,5.789,0,0,0,.913-.07,6.031,6.031,0,0,0,.7-.145v1.364a3.265,3.265,0,0,1-.854.231,6.388,6.388,0,0,1-1.015.091q-3.415,0-3.416-3.6v-7h-1.686v-.86l1.686-.741.752-2.514h1.031v2.729h3.416v1.386h-3.416v6.928a2.386,2.386,0,0,0,.505,1.633A1.758,1.758,0,0,0,1243.832,4030.715Z"/>
      <path id="Trazado_9440" data-name="Trazado 9440" d="M1247.645,4017.008a1.185,1.185,0,0,1,.3-.9,1.112,1.112,0,0,1,1.493,0,1.163,1.163,0,0,1,.312.892,1.181,1.181,0,0,1-.312.9,1.092,1.092,0,0,1-1.493,0A1.209,1.209,0,0,1,1247.645,4017.008Zm1.934,14.963H1247.8V4020.2h1.783Z"/>
      <path id="Trazado_9441" data-name="Trazado 9441" d="M1258.334,4032.186a5.41,5.41,0,0,1-4.12-1.59,6.153,6.153,0,0,1-1.509-4.415,6.823,6.823,0,0,1,1.4-4.522,4.657,4.657,0,0,1,3.765-1.676,4.438,4.438,0,0,1,3.5,1.456,5.579,5.579,0,0,1,1.289,3.84v1.128h-8.11a4.666,4.666,0,0,0,1.047,3.147,3.618,3.618,0,0,0,2.8,1.075,9.481,9.481,0,0,0,3.76-.795v1.59a9.421,9.421,0,0,1-1.788.585A10.079,10.079,0,0,1,1258.334,4032.186Zm-.483-10.71a2.914,2.914,0,0,0-2.262.924,4.259,4.259,0,0,0-.993,2.557h6.155a3.924,3.924,0,0,0-.752-2.584A2.649,2.649,0,0,0,1257.851,4021.476Z"/>
      <path id="Trazado_9442" data-name="Trazado 9442" d="M1271.074,4019.983a6.951,6.951,0,0,1,1.407.129l-.247,1.654a6.086,6.086,0,0,0-1.289-.161,3.141,3.141,0,0,0-2.444,1.16,4.236,4.236,0,0,0-1.015,2.89v6.316H1265.7V4020.2h1.472l.2,2.181h.086a5.188,5.188,0,0,1,1.579-1.773A3.558,3.558,0,0,1,1271.074,4019.983Z"/>
      <path id="Trazado_9443" data-name="Trazado 9443" d="M1280.055,4019.983a6.96,6.96,0,0,1,1.407.129l-.247,1.654a6.092,6.092,0,0,0-1.289-.161,3.139,3.139,0,0,0-2.444,1.16,4.231,4.231,0,0,0-1.015,2.89v6.316h-1.783V4020.2h1.471l.2,2.181h.086a5.187,5.187,0,0,1,1.579-1.773A3.559,3.559,0,0,1,1280.055,4019.983Z"/>
      <path id="Trazado_9444" data-name="Trazado 9444" d="M1290.9,4031.971l-.354-1.675h-.086a4.951,4.951,0,0,1-1.757,1.5,5.357,5.357,0,0,1-2.186.392,3.933,3.933,0,0,1-2.744-.9,3.289,3.289,0,0,1-.994-2.567q0-3.567,5.7-3.739l2-.064v-.731a2.982,2.982,0,0,0-.6-2.046,2.454,2.454,0,0,0-1.907-.661,7.767,7.767,0,0,0-3.33.9l-.548-1.365a8.4,8.4,0,0,1,1.907-.741,8.262,8.262,0,0,1,2.079-.268,4.483,4.483,0,0,1,3.12.934,3.9,3.9,0,0,1,1.016,3v8.035Zm-4.028-1.256a3.624,3.624,0,0,0,2.616-.913,3.381,3.381,0,0,0,.95-2.557v-1.064l-1.783.076a6.49,6.49,0,0,0-3.067.66,2,2,0,0,0-.94,1.821,1.836,1.836,0,0,0,.586,1.472A2.426,2.426,0,0,0,1286.876,4030.715Z"/>
    </g>
    <path id="Trazado_9445" data-name="Trazado 9445" d="M895.175,4115.372l-5.4,12-5.4-12v-235.2h10.8Z" fill="url(#linear-gradient)"/>
    <path id="Rectángulo_6151" data-name="Rectángulo 6151" d="M1.861,0H23.339A1.861,1.861,0,0,1,25.2,1.861V12a0,0,0,0,1,0,0H0a0,0,0,0,1,0,0V1.861A1.861,1.861,0,0,1,1.861,0Z" transform="translate(877.175 3868.171)" fill="url(#linear-gradient)"/>
    <path id="Trazado_9446" data-name="Trazado 9446" d="M812.375,3772.571s46.8,11.2,46.8,57.6,14.4,57.6,25.2,72" fill="none" stroke="#bf5239" stroke-linecap="round" stroke-miterlimit="10" stroke-width="3"/>
    <rect id="Rectángulo_6152" data-name="Rectángulo 6152" width="21.6" height="19.8" rx="4.35" transform="translate(878.975 3900.572)" fill="url(#linear-gradient)"/>
    <rect id="Rectángulo_6153" data-name="Rectángulo 6153" width="587.4" height="11.4" transform="translate(792.575 3946.572)" fill="#749d3a"/>
    <rect id="Rectángulo_6154" data-name="Rectángulo 6154" width="25.2" height="3" transform="translate(877.175 3877.171)" opacity="0.15"/>
    <rect id="Rectángulo_6155" data-name="Rectángulo 6155" width="10.8" height="2.55" transform="translate(884.375 3880.171)" opacity="0.25"/>
    <rect id="Rectángulo_6156" data-name="Rectángulo 6156" width="10.8" height="2.3" transform="translate(884.375 3920.371)" opacity="0.25"/>
    <rect id="Rectángulo_6157" data-name="Rectángulo 6157" width="21.6" height="19.8" rx="4.35" transform="translate(878.975 3900.572)" fill="url(#linear-gradient)"/>
    <path id="Trazado_9447" data-name="Trazado 9447" d="M879.274,3917.572a4.358,4.358,0,0,0,4.051,2.8h12.9a4.357,4.357,0,0,0,4.051-2.8Z" opacity="0.15"/>
    <path id="Trazado_9448" data-name="Trazado 9448" d="M991.631,4021.714v.981H912.538a1.512,1.512,0,0,0-1.512,1.511v.566a1.512,1.512,0,0,0,1.512,1.511h79.093v.981a1.234,1.234,0,0,0,1.786,1.1l5.55-2.775a1.234,1.234,0,0,0,0-2.208l-5.55-2.775A1.234,1.234,0,0,0,991.631,4021.714Z" fill="#0b92dd"/>
  </g>
</svg>
