<svg xmlns="http://www.w3.org/2000/svg" width="278.4" height="278.4" viewBox="0 0 278.4 278.4">
  <g id="Grupo_9187" data-name="Grupo 9187" transform="translate(-380.363 -1910.571)">
    <path id="Trazado_9136" data-name="Trazado 9136" d="M658.763,2049.967a139.212,139.212,0,0,1-255.373,76.516v-48.839a39.874,39.874,0,0,0-22.793-36.029,139.209,139.209,0,0,1,138.966-131.044c76.722,0,139.3,62.673,139.2,139.4Zm0,0" fill="#f76937"/>
    <path id="Trazado_9137" data-name="Trazado 9137" d="M626.384,2049.771A106.821,106.821,0,1,1,519.563,1942.95a106.821,106.821,0,0,1,106.821,106.821Zm0,0" fill="#ff7c48"/>
    <path id="Trazado_9138" data-name="Trazado 9138" d="M598.922,2017.56v43.361a8.156,8.156,0,0,1-8.156,8.156H583.21a8.157,8.157,0,0,1-8.157-8.156V2017.56a8.158,8.158,0,0,1,8.157-8.157h7.556a8.157,8.157,0,0,1,8.156,8.157Zm0,0" fill="#51489a"/>
    <path id="Trazado_9139" data-name="Trazado 9139" d="M604.719,2068.281v79.165a8.158,8.158,0,0,1-8.156,8.156h-19.15a8.159,8.159,0,0,1-8.157-8.156v-79.165a8.159,8.159,0,0,1,8.157-8.156h19.15a8.158,8.158,0,0,1,8.156,8.156Zm0,0" fill="#3493f8"/>
    <path id="Trazado_9140" data-name="Trazado 9140" d="M604.719,2068.281v79.165a8.158,8.158,0,0,1-8.156,8.156h-5a8.157,8.157,0,0,1-8.156-8.156v-79.165a8.157,8.157,0,0,1,8.156-8.156h5a8.158,8.158,0,0,1,8.156,8.156Zm0,0" fill="#76b6fa"/>
    <path id="Trazado_9141" data-name="Trazado 9141" d="M627.565,1948.316a40.6,40.6,0,0,1-28.643,38.794v29.323a10.876,10.876,0,0,1-10.875,10.875h-2.119a10.876,10.876,0,0,1-10.875-10.875V1987.11a40.592,40.592,0,0,1-6.969-74.707,16.024,16.024,0,0,1,7.378-1.832,1.632,1.632,0,0,1,1.631,1.632v20.682a4.243,4.243,0,0,1-1.009,2.742l-1.558,1.832a10.324,10.324,0,0,0-2.457,6.684v2.075a15.122,15.122,0,0,0,14.5,15.222,14.919,14.919,0,0,0,15.338-14.913V1944.2a10.331,10.331,0,0,0-2.458-6.684l-1.609-1.891a4.236,4.236,0,0,1-1.005-2.739V1912.2a1.63,1.63,0,0,1,1.631-1.632,15.869,15.869,0,0,1,7.372,1.8,40.578,40.578,0,0,1,21.727,35.941Zm0,0" fill="#5f55af"/>
    <path id="Trazado_9142" data-name="Trazado 9142" d="M510.863,2041.615v84.868H403.39a138.538,138.538,0,0,1-23.027-76.712q0-4.107.234-8.156Zm0,0" fill="#51489a"/>
    <path id="Trazado_9143" data-name="Trazado 9143" d="M510.863,2110.017v16.466H403.39a138.535,138.535,0,0,1-9.349-16.466Zm0,0" fill="#453d83"/>
    <path id="Trazado_9144" data-name="Trazado 9144" d="M617.919,2084.047a13.594,13.594,0,0,1-.779,22.294,13.594,13.594,0,0,1-7.377,25.012H506.45v-94.612h13.2a32.628,32.628,0,0,0,31-22.455l9.821-29.943a8.156,8.156,0,0,1,10.292-5.205,19.029,19.029,0,0,1,12.152,24.012l-6.341,19.329a10.876,10.876,0,0,0,10.334,14.265h22.852a13.594,13.594,0,0,1,7.377,25.012,13.591,13.591,0,0,1,.779,22.291Zm0,0" fill="#fff04a"/>
    <path id="Trazado_9145" data-name="Trazado 9145" d="M580.607,2062.51a5.439,5.439,0,0,1,5.426-5.8h35.738l-.031.062a10.2,10.2,0,0,0-.089,9.811c.182.325.349.659.505,1H586.22a5.562,5.562,0,0,1-5.613-5.075Zm5.426,26.9h36.154c-.093-.213-.193-.422-.3-.632a10.221,10.221,0,0,1-.049-9.36c.15-.289.293-.583.419-.883H586.218a5.561,5.561,0,0,0-5.611,5.075,5.439,5.439,0,0,0,5.426,5.8Zm0,21.821h35.649c-.025-.049-.053-.1-.081-.148a9.675,9.675,0,0,1,.034-9.53c.215-.387.416-.787.594-1.2H586.22a5.562,5.562,0,0,0-5.613,5.075,5.439,5.439,0,0,0,5.426,5.8Zm35.945.566a13.6,13.6,0,0,1-12.215,7.623H506.45v11.94H609.763a13.6,13.6,0,0,0,12.215-19.563Zm0,0" fill="#e9cc5a"/>
    <path id="Trazado_9146" data-name="Trazado 9146" d="M510.863,2029.672v103.856a8.157,8.157,0,1,1-16.313,0V2029.672a8.157,8.157,0,0,1,16.313,0Zm0,0" fill="#e1b91e"/>
    <path id="Trazado_9147" data-name="Trazado 9147" d="M510.863,2029.672v80.422a8.157,8.157,0,0,1-16.313,0v-80.422a8.157,8.157,0,0,1,16.313,0Zm0,0" fill="#eac23f"/>
    <path id="Trazado_9148" data-name="Trazado 9148" d="M497.419,1955.052v1.75a4.567,4.567,0,0,1-4.568,4.567h-1.838a38.995,38.995,0,0,1-2.492,9.321l1.588.918a4.565,4.565,0,0,1,1.672,6.238l-.875,1.516a4.568,4.568,0,0,1-6.24,1.673l-1.594-.92a39.431,39.431,0,0,1-6.819,6.819l.92,1.594a4.568,4.568,0,0,1-1.674,6.24l-1.515.878a4.568,4.568,0,0,1-6.239-1.674l-.917-1.586a39,39,0,0,1-9.321,2.492v1.838a4.569,4.569,0,0,1-4.568,4.568h-1.75a4.569,4.569,0,0,1-4.568-4.568v-1.838a39,39,0,0,1-9.321-2.492l-.917,1.586a4.567,4.567,0,0,1-6.239,1.674l-1.515-.878a4.568,4.568,0,0,1-1.674-6.24l.923-1.594a39.448,39.448,0,0,1-6.822-6.819l-1.594.92a4.569,4.569,0,0,1-6.24-1.673l-.875-1.516a4.568,4.568,0,0,1,1.672-6.238l1.588-.918a38.995,38.995,0,0,1-2.492-9.321h-1.838a4.567,4.567,0,0,1-4.568-4.567v-1.75a4.568,4.568,0,0,1,4.568-4.569h1.838a38.99,38.99,0,0,1,2.492-9.32l-1.588-.917a4.569,4.569,0,0,1-1.672-6.24l.875-1.515a4.565,4.565,0,0,1,6.24-1.67l1.594.92a39.437,39.437,0,0,1,6.822-6.823l-.923-1.594a4.568,4.568,0,0,1,1.674-6.239l1.515-.875a4.568,4.568,0,0,1,6.239,1.671l.917,1.588a39.04,39.04,0,0,1,9.321-2.491v-1.838a4.568,4.568,0,0,1,4.568-4.569h1.75a4.568,4.568,0,0,1,4.568,4.569v1.838a39.04,39.04,0,0,1,9.321,2.491l.917-1.588a4.568,4.568,0,0,1,6.239-1.671l1.515.875a4.568,4.568,0,0,1,1.674,6.239l-.92,1.594a39.42,39.42,0,0,1,6.819,6.823l1.594-.92a4.564,4.564,0,0,1,6.24,1.67l.875,1.515a4.567,4.567,0,0,1-1.672,6.24l-1.588.917a38.9,38.9,0,0,1,2.492,9.32h1.838a4.568,4.568,0,0,1,4.568,4.569Zm0,0" fill="#fff04a"/>
    <path id="Trazado_9149" data-name="Trazado 9149" d="M475.612,1955.927a23.548,23.548,0,1,1-23.548-23.549,23.549,23.549,0,0,1,23.548,23.549Zm0,0" fill="#ea552d"/>
    <path id="Trazado_9150" data-name="Trazado 9150" d="M452.064,1928.3a27.626,27.626,0,1,0,27.626,27.627,27.657,27.657,0,0,0-27.626-27.627Zm0,47.1a19.47,19.47,0,1,1,19.47-19.47,19.492,19.492,0,0,1-19.47,19.47Zm0,0" fill="#eac23f"/>
    <path id="Trazado_9151" data-name="Trazado 9151" d="M539.619,1998.755a23.578,23.578,0,0,1-1.167,4.359,4.083,4.083,0,0,0-3.962,6.856,24.24,24.24,0,0,1-3.191,3.192,4.084,4.084,0,0,0-6.857,3.962,23.59,23.59,0,0,1-4.358,1.166,4.083,4.083,0,0,0-7.919,0,23.623,23.623,0,0,1-4.361-1.166,4.082,4.082,0,0,0-6.854-3.962,24.181,24.181,0,0,1-3.191-3.192,4.084,4.084,0,0,0-3.965-6.856,23.807,23.807,0,0,1-1.164-4.359,4.083,4.083,0,0,0,0-7.918,23.857,23.857,0,0,1,1.164-4.362,4.082,4.082,0,0,0,3.965-6.853,24,24,0,0,1,3.191-3.192,4.082,4.082,0,0,0,6.854-3.962,23.536,23.536,0,0,1,4.361-1.166,4.083,4.083,0,0,0,7.919,0,23.5,23.5,0,0,1,4.358,1.166,4.084,4.084,0,0,0,6.857,3.962,24.062,24.062,0,0,1,3.191,3.192,4.081,4.081,0,0,0,3.962,6.853,23.627,23.627,0,0,1,1.167,4.362,4.082,4.082,0,0,0,0,7.918Zm0,0" fill="#eac23f"/>
    <path id="Trazado_9152" data-name="Trazado 9152" d="M527.461,1994.8a11.338,11.338,0,1,1-11.336-11.34,11.336,11.336,0,0,1,11.336,11.34Zm0,0" fill="#ea552d"/>
    <path id="Trazado_9153" data-name="Trazado 9153" d="M481.121,1943.361l-24.469,24.469a4.075,4.075,0,0,1-5.766,0l-10.875-10.875a4.078,4.078,0,0,1,5.766-5.767l7.992,7.992,21.585-21.586a4.078,4.078,0,1,1,5.767,5.767Zm0,0" fill="#fff5f5"/>
  </g>
</svg>
