<svg xmlns="http://www.w3.org/2000/svg" width="278.399" height="278.4" viewBox="0 0 278.399 278.4">
  <g id="Grupo_9188" data-name="Grupo 9188" transform="translate(-709.258 -1910.571)">
    <path id="Trazado_9154" data-name="Trazado 9154" d="M952.705,2142.016a42.826,42.826,0,0,1-41.523,13.41,284.3,284.3,0,0,0-62.724-6.89,279.4,279.4,0,0,0-79.943,11.407,7.473,7.473,0,0,1-6.81-1.3,139.206,139.206,0,0,1,86.588-248.069c75.276-.087,138.538,62.382,139.356,137.651a138.671,138.671,0,0,1-34.944,93.794Zm0,0" fill="#3493f8"/>
    <path id="Trazado_9155" data-name="Trazado 9155" d="M959.094,2049.771a110.636,110.636,0,1,1-110.636-110.636,110.639,110.639,0,0,1,110.636,110.636Zm0,0" fill="#55a4f9"/>
    <path id="Trazado_9156" data-name="Trazado 9156" d="M801.265,2108.009a38.022,38.022,0,0,0-15.882,30.937v26.463a5.023,5.023,0,0,1-7.565,4.333,140.028,140.028,0,0,1-16.36-11.3v-19.5A38.064,38.064,0,0,1,796.8,2100.98c.9-.065,10.708,2.547,4.463,7.029Zm0,0" fill="#453d83"/>
    <path id="Trazado_9157" data-name="Trazado 9157" d="M935.458,2138.946v4.832a28.565,28.565,0,0,1-13.5,24.231,138.618,138.618,0,0,1-21.841,11.062c-15.972,6.389-87.34,6.389-103.312,0a138.863,138.863,0,0,1-19.031-9.357v-30.768a38.077,38.077,0,0,1,24.468-35.562c4.22-1.616,6.919,1.745,11.708,1.745h81.562c.915,0,3.708-4.211,4.605-4.149a38.064,38.064,0,0,1,35.344,37.966Zm0,0" fill="#51489a"/>
    <path id="Trazado_9158" data-name="Trazado 9158" d="M900.114,2133.509a14.1,14.1,0,0,0,0,16.312v29.25a139.716,139.716,0,0,1-103.312,0v-29.25a12.86,12.86,0,0,0,.68-15.307l-.68-1V2100.98c.9-.065,100.594-.1,100.594-.1q1.371,0,2.718.1Zm0,0" fill="#f76937"/>
    <path id="Trazado_9159" data-name="Trazado 9159" d="M844.38,2119.477h8.156v69.435q-2.03.06-4.078.059t-4.078-.059Zm51.656,43.176a4.079,4.079,0,0,0-4.078,4.078v15.308q4.138-1.359,8.156-2.968v-12.34a4.079,4.079,0,0,0-4.078-4.078Zm-95.156,0a4.079,4.079,0,0,0-4.078,4.078v12.34q4.019,1.605,8.156,2.968v-15.308a4.079,4.079,0,0,0-4.078-4.078Zm0,0" fill="#ea552d"/>
    <path id="Trazado_9160" data-name="Trazado 9160" d="M802.239,2032.915v5.438a13.594,13.594,0,0,1-27.187,0v-5.438a13.594,13.594,0,1,1,27.187,0Zm0,0" fill="#ffbeaa"/>
    <path id="Trazado_9161" data-name="Trazado 9161" d="M783.208,2030.2v10.875a13.57,13.57,0,0,0,5.438,10.875,13.594,13.594,0,0,1-13.594-13.593v-5.438a13.594,13.594,0,0,1,13.594-13.594,13.571,13.571,0,0,0-5.438,10.875Zm125.063-10.875v-10.875a59.813,59.813,0,0,0-119.625,0v21.75a59.838,59.838,0,0,0,43.5,57.562v18.563a16.313,16.313,0,1,0,32.625,0v-18.563a59.963,59.963,0,0,0,39.637-36.37,13.6,13.6,0,0,0,17.456-13.035v-5.438a13.594,13.594,0,0,0-13.593-13.594Zm0,0" fill="#faa68e"/>
    <path id="Trazado_9162" data-name="Trazado 9162" d="M908.271,2008.446v21.75a59.838,59.838,0,0,1-44.16,57.743,28.707,28.707,0,0,1-14.993,0,59.838,59.838,0,0,1-44.16-57.743v-21.75a59.826,59.826,0,0,1,51.656-59.26,59.826,59.826,0,0,1,51.657,59.26Zm0,0" fill="#ffbeaa"/>
    <rect id="Rect치ngulo_6140" data-name="Rect치ngulo 6140" width="103.313" height="16.313" transform="translate(796.802 2133.509)" fill="#fff36c"/>
    <rect id="Rect치ngulo_6141" data-name="Rect치ngulo 6141" width="8.156" height="16.313" transform="translate(844.38 2133.509)" fill="#e9cc5a"/>
    <path id="Trazado_9163" data-name="Trazado 9163" d="M788.646,2051.946a24.469,24.469,0,1,1,0-48.937,8.155,8.155,0,0,1,8.156,8.156v32.625a8.155,8.155,0,0,1-8.156,8.156Zm119.625,0a24.469,24.469,0,0,0,0-48.937,8.155,8.155,0,0,0-8.157,8.156v32.625a8.155,8.155,0,0,0,8.157,8.156Zm0,0" fill="#f76937"/>
    <path id="Trazado_9164" data-name="Trazado 9164" d="M796.8,2003.009v48.937a5.438,5.438,0,1,1-10.875,0v-48.937a5.438,5.438,0,1,1,10.875,0Zm103.312,0v48.937a5.438,5.438,0,1,0,10.875,0v-48.937a5.438,5.438,0,1,0-10.875,0Zm0,0" fill="#ea552d"/>
    <path id="Trazado_9165" data-name="Trazado 9165" d="M911.533,2008.446a21.752,21.752,0,0,1-21.75,21.75h-82.65a21.75,21.75,0,0,1,0-43.5h82.65a21.753,21.753,0,0,1,21.75,21.75Zm0,0" fill="#ffbeaa"/>
    <path id="Trazado_9166" data-name="Trazado 9166" d="M911.533,2008.446a21.752,21.752,0,0,1-21.75,21.75H804.958v-43.5h84.825a21.753,21.753,0,0,1,21.75,21.75Zm0,0" fill="#ffcdbe"/>
    <path id="Trazado_9167" data-name="Trazado 9167" d="M856.614,1986.7l-12.141,43.5H823.08l12.144-43.5Zm6.341,0-12.144,43.5h10.7l12.141-43.5Zm0,0" fill="#ffdecf"/>
    <path id="Trazado_9168" data-name="Trazado 9168" d="M830.786,2012.525a8.156,8.156,0,1,1-8.156-8.157,8.155,8.155,0,0,1,8.156,8.157Zm43.5-8.157a8.156,8.156,0,1,0,8.156,8.157,8.155,8.155,0,0,0-8.156-8.157Zm0,0" fill="#61362b"/>
    <path id="Trazado_9169" data-name="Trazado 9169" d="M832.146,2008.446a4.078,4.078,0,1,1-4.079-4.078,4.08,4.08,0,0,1,4.079,4.078Zm47.578-4.078a4.078,4.078,0,1,0,4.078,4.078,4.08,4.08,0,0,0-4.078-4.078Zm0,0" fill="#fff5f5"/>
    <path id="Trazado_9170" data-name="Trazado 9170" d="M889.783,1982.618h-82.65a25.828,25.828,0,0,0,0,51.657h82.65a25.828,25.828,0,0,0,0-51.657Zm0,43.5h-82.65a17.672,17.672,0,1,1,0-35.343h82.65a17.672,17.672,0,1,1,0,35.343Zm0,0" fill="#fff5f5"/>
    <path id="Trazado_9171" data-name="Trazado 9171" d="M864.935,2057.933a23.329,23.329,0,0,1-32.954,0,4.077,4.077,0,0,1,5.767-5.765,15.166,15.166,0,0,0,21.42,0,4.077,4.077,0,1,1,5.767,5.765Zm-16.477-17.508a11.077,11.077,0,0,0,7.884-3.267,4.078,4.078,0,0,0-5.766-5.767,2.991,2.991,0,0,1-4.234,0,4.078,4.078,0,0,0-5.768,5.767,11.079,11.079,0,0,0,7.884,3.267Zm0,0" fill="#e09380"/>
    <path id="Trazado_9172" data-name="Trazado 9172" d="M882.442,2167.493H863.411a4.078,4.078,0,1,1,0-8.156h19.031a4.078,4.078,0,1,1,0,8.156Zm-44.859-4.078a4.08,4.08,0,0,0-4.078-4.078H814.474a4.078,4.078,0,1,0,0,8.156h19.031a4.079,4.079,0,0,0,4.078-4.078Zm0,0" fill="#d1462a"/>
    <path id="Trazado_9173" data-name="Trazado 9173" d="M913.929,1993.015H782.987l-.184-22.076a47.858,47.858,0,0,1,34.352-46.312l17.7-5.206a47.845,47.845,0,0,1,27.19.057l17.525,5.231a47.857,47.857,0,0,1,34.168,45.457Zm0,0" fill="#e9cc5a"/>
    <path id="Trazado_9174" data-name="Trazado 9174" d="M860.112,1918.943q-.879.225-1.75.478l-17.7,5.206a47.858,47.858,0,0,0-34.352,46.312l.184,22.076H782.987l-.184-22.076a47.858,47.858,0,0,1,34.352-46.312l17.7-5.206a47.881,47.881,0,0,1,25.259-.478Zm0,0" fill="#eac23f"/>
    <path id="Trazado_9175" data-name="Trazado 9175" d="M832.262,1988.534a7.274,7.274,0,0,1-7.273,7.273H784.927a7.274,7.274,0,0,1,0-14.548h40.062a7.272,7.272,0,0,1,7.273,7.275Zm0,0" fill="#e9cc5a"/>
    <path id="Trazado_9176" data-name="Trazado 9176" d="M841.183,1961.494v-43.647a7.275,7.275,0,1,1,14.55,0v43.644a7.275,7.275,0,0,1-14.55,0Zm35.887,7.273a7.275,7.275,0,0,0,7.276-7.273v-38.8a7.274,7.274,0,1,0-14.548,0v38.795a7.274,7.274,0,0,0,7.272,7.276Zm-58.2,0a7.275,7.275,0,0,0,7.276-7.273v-38.8a7.274,7.274,0,1,0-14.548,0v38.795a7.272,7.272,0,0,0,7.272,7.276Zm93.115,12.492H806.267a7.274,7.274,0,1,0,0,14.548H911.989a7.274,7.274,0,0,0,0-14.548Zm0,0" fill="#fff04a"/>
    <path id="Trazado_9177" data-name="Trazado 9177" d="M953.946,2079.474v15.972H937.633a16.313,16.313,0,1,1,.459-32.619,16.535,16.535,0,0,1,15.854,16.647Zm0,0" fill="#fff04a"/>
    <path id="Trazado_9178" data-name="Trazado 9178" d="M932.2,2079.134v10.875a5.438,5.438,0,0,1-10.875,0v-10.875a5.438,5.438,0,1,1,10.875,0Zm0,0" fill="#e9cc5a"/>
    <path id="Trazado_9179" data-name="Trazado 9179" d="M938.168,2156.213a139.82,139.82,0,0,1-16.847,12.189v-72.956h21.75v50.125a13.914,13.914,0,0,1-4.9,10.642Zm0,0" fill="#453d83"/>
    <path id="Trazado_9180" data-name="Trazado 9180" d="M937.633,2095.446h16.313V2140.6a140.058,140.058,0,0,1-16.313,16.064Zm0,0" fill="#51489a"/>
    <path id="Trazado_9181" data-name="Trazado 9181" d="M959.383,2094.087a4.08,4.08,0,0,1-4.078,4.078H919.961a4.078,4.078,0,1,1,0-8.156H955.3a4.079,4.079,0,0,1,4.078,4.078Zm0,0" fill="#6a61b4"/>
    <path id="Trazado_9182" data-name="Trazado 9182" d="M757.476,2010.381a4.077,4.077,0,0,1-5.766,5.766l-9.615-9.612a4.078,4.078,0,0,1,5.769-5.766Zm-5.465,17.233a4.08,4.08,0,0,0-4.079-4.079H734.339a4.078,4.078,0,1,0,0,8.156h13.593a4.079,4.079,0,0,0,4.079-4.077Zm-2.224,11.6-5.769,5.769a4.079,4.079,0,0,0,5.769,5.767l5.766-5.767a4.078,4.078,0,0,0-5.766-5.769Zm195.419-23.069,9.615-9.612a4.078,4.078,0,1,0-5.769-5.766l-9.612,9.612a4.077,4.077,0,0,0,5.766,5.766Zm17.371,7.388H948.984a4.078,4.078,0,1,0,0,8.156h13.593a4.078,4.078,0,1,0,0-8.156Zm-15.448,15.681a4.078,4.078,0,0,0-5.766,5.769l5.766,5.767a4.079,4.079,0,0,0,5.769-5.767Zm0,0" fill="#fff5f5"/>
  </g>
</svg>
