<svg xmlns="http://www.w3.org/2000/svg" width="602.861" height="579.894" viewBox="0 0 602.861 579.894">
  <g id="Grupo_9194" data-name="Grupo 9194" transform="translate(-1538.369 -2336.854)">
    <circle id="Elipse_220" data-name="Elipse 220" cx="244.534" cy="244.534" r="244.534" transform="translate(1595.275 2393.703)" fill="#a5a5a5"/>
    <path id="Trazado_9198" data-name="Trazado 9198" d="M2018.332,2411.705a12.711,12.711,0,0,0-2.583-18.185,301.467,301.467,0,0,0-351.88,0,12.711,12.711,0,0,0-2.583,18.185l178.523,226.532Z" fill="#c1d911"/>
    <path id="Trazado_9199" data-name="Trazado 9199" d="M1940.559,2908.49a12.712,12.712,0,0,0,16.878,7.245,301.469,301.469,0,0,0,182.883-300.623,12.713,12.713,0,0,0-14.194-11.658l-286.317,34.783Z" fill="#fabc07"/>
    <path id="Trazado_9200" data-name="Trazado 9200" d="M1556.561,2583.852a12.712,12.712,0,0,0-14.961,10.654,301.467,301.467,0,0,0,161.782,312.485,12.711,12.711,0,0,0,17.336-6.067l119.091-262.687Z" fill="#fe680f"/>
    <circle id="Elipse_221" data-name="Elipse 221" cx="142.792" cy="142.792" r="142.792" transform="translate(1697.017 2495.445)" opacity="0.15"/>
    <circle id="Elipse_222" data-name="Elipse 222" cx="131.337" cy="131.337" r="131.337" transform="translate(1708.472 2506.9)" fill="#55a4f9"/>
    <g id="Grupo_9190" data-name="Grupo 9190">
      <path id="Trazado_9201" data-name="Trazado 9201" d="M1738.97,2454.516a15.473,15.473,0,0,1-4.331,3.627c-5.845,3.523-11.4,2.335-14.485-2.782-3.323-5.515-1.1-11.4,4.531-14.788a13.238,13.238,0,0,1,4.9-1.938l.757,2.863a11.454,11.454,0,0,0-3.994,1.527c-3.742,2.256-5.159,6.022-2.734,10.046,2.23,3.7,5.986,4.621,10.056,2.168a12.987,12.987,0,0,0,3.3-2.8Z"/>
      <path id="Trazado_9202" data-name="Trazado 9202" d="M1751.36,2440.948c2.3,4.654-.282,8.514-3.829,10.266-3.92,1.936-8.188,1-10.2-3.079-2.053-4.16-.307-8.191,3.9-10.268C1745.376,2435.818,1749.46,2437.1,1751.36,2440.948Zm-10.436,5.315c1.206,2.444,3.462,3.626,5.579,2.58,2-.989,2.532-3.449,1.262-6.023-.976-1.976-3.078-3.784-5.481-2.6C1739.8,2441.452,1739.884,2444.157,1740.924,2446.263Z"/>
      <path id="Trazado_9203" data-name="Trazado 9203" d="M1753.557,2436.835c-.56-1.524-1.09-2.782-1.571-3.9l3.144-1.157.9,1.894.09-.033a5.4,5.4,0,0,1,3.659-3.912,4.5,4.5,0,0,1,4.943.963l.06-.022a5.855,5.855,0,0,1,1.156-2.311,5.785,5.785,0,0,1,2.7-1.891c2.4-.881,5.4-.287,6.962,3.959l2.873,7.813-3.593,1.322-2.692-7.323c-.811-2.2-2.13-3.2-3.9-2.553a2.968,2.968,0,0,0-1.924,2.717,3.477,3.477,0,0,0,.231,1.182l2.923,7.949-3.593,1.322-2.823-7.677c-.681-1.851-1.969-2.86-3.676-2.232a3.109,3.109,0,0,0-1.973,2.859,3.725,3.725,0,0,0,.23,1.182l2.883,7.84-3.592,1.322Z"/>
      <path id="Trazado_9204" data-name="Trazado 9204" d="M1779.726,2428.241c-.45-1.8-.878-3.248-1.263-4.527l3.342-.835.713,2.064.062-.016a6.242,6.242,0,0,1,4.563-3.712c3.466-.866,7.019,1.116,8.088,5.392,1.238,4.953-1.6,8.2-5.034,9.062a5.292,5.292,0,0,1-4.7-.769l-.062.015,1.772,7.091-3.806.951Zm4.657,2.454a4.953,4.953,0,0,0,.333.933,3.534,3.534,0,0,0,3.978,1.577c2.413-.6,3.379-2.789,2.7-5.49-.6-2.42-2.4-4.064-4.842-3.453a3.653,3.653,0,0,0-2.794,3.419,4.358,4.358,0,0,0,.094.9Z"/>
      <path id="Trazado_9205" data-name="Trazado 9205" d="M1813.224,2423.7c.82,5.127-2.782,8.053-6.688,8.677-4.315.69-8.115-1.463-8.833-5.96-.733-4.582,2.125-7.918,6.755-8.658C1809.025,2417.027,1812.547,2419.46,1813.224,2423.7Zm-11.535,1.992c.43,2.692,2.235,4.489,4.566,4.116,2.2-.352,3.436-2.547,2.983-5.382-.348-2.177-1.821-4.526-4.467-4.1C1802.031,2420.759,1801.318,2423.37,1801.689,2425.69Z"/>
      <path id="Trazado_9206" data-name="Trazado 9206" d="M1816.372,2421.059c-.172-1.906-.329-3.29-.537-4.523l3.368-.3.4,2.643.095-.009a4.615,4.615,0,0,1,3.988-3.359,4.469,4.469,0,0,1,.929,0l.3,3.322a6.946,6.946,0,0,0-1.184.02,3.376,3.376,0,0,0-3.252,3,5.628,5.628,0,0,0,0,1.078l.66,7.308-3.908.353Z"/>
      <path id="Trazado_9207" data-name="Trazado 9207" d="M1832.907,2411.772l.124,3.623,3.729-.129.092,2.666-3.73.128.213,6.23c.06,1.739.6,2.591,2.1,2.539a5.612,5.612,0,0,0,1.525-.2l.156,2.693a9.4,9.4,0,0,1-2.824.474,4.742,4.742,0,0,1-3.419-1.042c-.888-.782-1.315-2.073-1.379-3.927l-.227-6.636-2.2.076-.092-2.666,2.2-.076-.09-2.636Z"/>
      <path id="Trazado_9208" data-name="Trazado 9208" d="M1852.07,2426.285a17.363,17.363,0,0,0,.157,3.4l-3.54-.1-.241-1.573-.1,0a5.921,5.921,0,0,1-4.647,1.752c-3.125-.089-4.82-2.2-4.757-4.344.1-3.537,3.631-5.263,9.37-5.07l.007-.231c.027-.928-.343-2.477-3.086-2.555a8.864,8.864,0,0,0-4.208.923l-.7-2.341a12.069,12.069,0,0,1,5.649-1.085c4.975.142,6.327,3.054,6.237,6.156Zm-3.725-3.617c-2.774-.109-5.436.337-5.5,2.482a1.976,1.976,0,0,0,2.174,2.094,3.216,3.216,0,0,0,3.149-1.854,2.191,2.191,0,0,0,.119-.78Z"/>
      <path id="Trazado_9209" data-name="Trazado 9209" d="M1856.938,2419.859c.21-1.61.322-2.971.416-4.187l3.321.431-.08,2.1.1.012a5.4,5.4,0,0,1,5.054-1.772,4.5,4.5,0,0,1,3.934,3.143l.063.009a5.874,5.874,0,0,1,2.1-1.513,5.773,5.773,0,0,1,3.272-.423c2.53.328,4.918,2.246,4.335,6.733l-1.073,8.255-3.8-.492,1.006-7.737c.3-2.33-.4-3.826-2.27-4.068a2.966,2.966,0,0,0-2.963,1.517,3.459,3.459,0,0,0-.343,1.154l-1.092,8.4-3.8-.492,1.055-8.112c.254-1.956-.421-3.447-2.224-3.681a3.111,3.111,0,0,0-3.073,1.619,3.724,3.724,0,0,0-.343,1.155l-1.077,8.284-3.8-.493Z"/>
      <path id="Trazado_9210" data-name="Trazado 9210" d="M1882,2433.672l2.973-13.807,3.836.826-2.972,13.806Zm7.888-16.783a2.017,2.017,0,0,1-2.586,1.4,1.947,1.947,0,1,1,2.586-1.4Z"/>
      <path id="Trazado_9211" data-name="Trazado 9211" d="M1894.013,2430.224c-.588,2.486,1.208,4.127,3.637,4.8a13.657,13.657,0,0,0,4.321.534l-.1,2.5a15.2,15.2,0,0,1-5.467-.58c-4.858-1.346-6.967-4.849-5.814-9.014a7.283,7.283,0,0,1,9.344-5.3c4.858,1.345,5.451,5.422,4.624,8.413a8.07,8.07,0,0,1-.526,1.42Zm7.245-.582a3.128,3.128,0,0,0-2.185-4.186,3.646,3.646,0,0,0-4.4,2.364Z"/>
      <path id="Trazado_9212" data-name="Trazado 9212" d="M1908.59,2430.415c.56-1.525.969-2.826,1.329-3.991l3.205,1.175-.55,2.053.09.033a5.841,5.841,0,0,1,5.512-.573c2.546.934,4.632,3.4,3.093,7.59l-2.888,7.867-3.685-1.351,2.749-7.486c.7-1.906.451-3.634-1.556-4.37a3.264,3.264,0,0,0-3.6.905,3.047,3.047,0,0,0-.57,1l-2.868,7.813-3.684-1.352Z"/>
      <path id="Trazado_9213" data-name="Trazado 9213" d="M1933.123,2431.715l-1.48,3.309,3.408,1.523-1.089,2.435-3.409-1.522-2.545,5.692c-.71,1.588-.6,2.59.769,3.2a5.593,5.593,0,0,0,1.458.493l-1.043,2.488a9.42,9.42,0,0,1-2.746-.814,4.744,4.744,0,0,1-2.615-2.439c-.455-1.093-.271-2.44.487-4.135l2.711-6.062-2.01-.9,1.09-2.436,2.009.9,1.078-2.409Z"/>
      <path id="Trazado_9214" data-name="Trazado 9214" d="M1947.926,2451.02c-2.433,4.585-7.07,4.751-10.563,2.9-3.859-2.048-5.6-6.056-3.46-10.079,2.175-4.1,6.465-5.039,10.605-2.841C1948.593,2443.164,1949.939,2447.228,1947.926,2451.02Zm-10.405-5.36c-1.278,2.408-.92,4.93,1.165,6.036,1.971,1.047,4.276.038,5.622-2.5,1.034-1.947,1.272-4.71-1.094-5.966C1940.763,2441.93,1938.622,2443.584,1937.521,2445.66Z"/>
      <path id="Trazado_9215" data-name="Trazado 9215" d="M1948.617,2456.043a9.154,9.154,0,0,0,2.793,2.99c1.459.917,2.462.76,2.956-.026.51-.81.217-1.543-1.064-3.1-2.072-2.4-2.322-4.338-1.426-5.762,1.328-2.111,4.264-2.526,7.316-.607a9.716,9.716,0,0,1,3.064,2.92l-2,1.687a7.388,7.388,0,0,0-2.349-2.437c-1.188-.747-2.176-.614-2.64.122-.479.761-.073,1.5,1.246,3.113,1.925,2.273,2.311,4.057,1.226,5.841-1.375,2.186-4.227,2.585-7.71.394a10.853,10.853,0,0,1-3.473-3.348Z"/>
    </g>
    <g id="Grupo_9191" data-name="Grupo 9191">
      <path id="Trazado_9216" data-name="Trazado 9216" d="M1978.473,2796.181l2.882-2.663,11.239,12.163,6.488-6,2.028,2.194-9.37,8.661Z"/>
      <path id="Trazado_9217" data-name="Trazado 9217" d="M1993.438,2783.773a2.017,2.017,0,0,1-.181,2.935,1.947,1.947,0,1,1,.181-2.935Zm10.056,15.585-10.136-9.839,2.733-2.815,10.136,9.838Z"/>
      <path id="Trazado_9218" data-name="Trazado 9218" d="M2003.407,2768.7l12.608,10.824c1.1.945,2.33,1.916,3.1,2.491l-2.266,2.638-1.818-1.309-.042.048a5.707,5.707,0,0,1-1.348,5.486c-2.431,2.832-6.522,3.188-9.822.354-3.607-3.055-3.621-7.355-1.19-10.187a5.121,5.121,0,0,1,4.233-2.125l.042-.049-6.051-5.194Zm6.817,11.024a4.925,4.925,0,0,0-.788-.551,3.376,3.376,0,0,0-4.1.941c-1.642,1.911-1.017,4.3.964,6s4.325,1.863,5.946-.025a3.4,3.4,0,0,0,.289-4.208,3.637,3.637,0,0,0-.709-.777Z"/>
      <path id="Trazado_9219" data-name="Trazado 9219" d="M2018.967,2772.185c2.119,1.425,4.287.321,5.771-1.717a13.643,13.643,0,0,0,2.02-3.856l2.307.97a15.192,15.192,0,0,1-2.467,4.913c-2.967,4.074-6.988,4.816-10.48,2.272a7.285,7.285,0,0,1-1.67-10.611c2.968-4.074,6.991-3.2,9.5-1.369a8.014,8.014,0,0,1,1.144.992Zm2-6.987a3.126,3.126,0,0,0-4.686.573,3.647,3.647,0,0,0,.666,4.946Z"/>
      <path id="Trazado_9220" data-name="Trazado 9220" d="M2024.095,2758.813c-1.615-1.027-2.807-1.746-3.911-2.334l1.813-2.854,2.337,1.295.051-.081a4.617,4.617,0,0,1-.228-5.21,4.506,4.506,0,0,1,.569-.734l2.815,1.788a6.856,6.856,0,0,0-.706.95,3.376,3.376,0,0,0,.394,4.408,5.574,5.574,0,0,0,.855.656l6.192,3.934-2.1,3.313Z"/>
      <path id="Trazado_9221" data-name="Trazado 9221" d="M2041.31,2741.71a17.331,17.331,0,0,0,3.094,1.416l-1.709,3.1-1.51-.505-.046.084a5.921,5.921,0,0,1-.567,4.933c-1.508,2.739-4.158,3.281-6.037,2.244-3.1-1.709-3.019-5.637-.222-10.652l-.2-.112c-.813-.448-2.359-.827-3.683,1.576a8.874,8.874,0,0,0-1.1,4.164l-2.4-.45a12.067,12.067,0,0,1,1.618-5.52c2.4-4.358,5.608-4.229,8.325-2.73Zm-4.92,1.658c-1.364,2.417-2.185,4.988-.306,6.024a1.975,1.975,0,0,0,2.855-.975,3.218,3.218,0,0,0-.208-3.648,2.2,2.2,0,0,0-.639-.462Z"/>
      <path id="Trazado_9222" data-name="Trazado 9222" d="M2044.018,2739.356l-3.707-8.146c-.455-1.089-.805-1.989-1.207-3.054l-.053-.024-3.162,6.831-2.579-1.193,5.171-11.174,1.974.914,3.643,7.94c.442,1.048.871,2.055,1.22,3.095l.053.025,3.429-7.411,2.58,1.194-5.493,11.868Z"/>
      <path id="Trazado_9223" data-name="Trazado 9223" d="M2055.82,2711.073c2.77,1.037,4.518,2.406,5.2,4.4a9.495,9.495,0,0,1-.5,6.217,12.292,12.292,0,0,1-2.96,4.682l-2.224-1.752a10.115,10.115,0,0,0,2.593-3.866c.9-2.39.425-4.61-2.427-5.677l-1.14-.427-.023.06a5.371,5.371,0,0,1,.367,4.974c-1.353,3.616-5.031,5.169-8.779,3.766-4.346-1.626-5.817-5.718-4.508-9.214a4.965,4.965,0,0,1,3.641-3.441l.022-.059-1.709-.81,1.2-3.2c.874.4,1.938.861,3.758,1.542Zm-7.379,1.429a3.049,3.049,0,0,0-.941-.216,3.21,3.21,0,0,0-3.264,2.185c-.772,2.061.288,4.2,2.977,5.2,2.254.844,4.543.27,5.4-2.031a3.314,3.314,0,0,0-.918-3.75,3.957,3.957,0,0,0-1.112-.586Z"/>
      <path id="Trazado_9224" data-name="Trazado 9224" d="M2056.443,2690.641c5,1.406,6.144,5.9,5.073,9.714-1.183,4.208-4.732,6.756-9.116,5.522-4.468-1.257-6.3-5.252-5.028-9.768C2048.624,2691.656,2052.31,2689.478,2056.443,2690.641Zm-3.03,11.312c2.625.738,5.013-.147,5.652-2.42.6-2.15-.871-4.19-3.635-4.968-2.123-.6-4.873-.244-5.6,2.336C2049.08,2699.573,2051.151,2701.316,2053.413,2701.953Z"/>
    </g>
    <g id="Grupo_9192" data-name="Grupo 9192">
      <path id="Trazado_9225" data-name="Trazado 9225" d="M1610.473,2647.6a15.476,15.476,0,0,1-.936-5.57c-.082-6.825,3.754-11.018,9.726-11.09,6.436-.078,10.38,4.818,10.459,11.388a13.217,13.217,0,0,1-.808,5.208l-2.851-.794a11.479,11.479,0,0,0,.7-4.219c-.052-4.369-2.583-7.5-7.279-7.439-4.32.052-7.013,2.828-6.956,7.579a12.984,12.984,0,0,0,.747,4.265Z"/>
      <path id="Trazado_9226" data-name="Trazado 9226" d="M1610.208,2651.433l14.089-.944.263,3.915-14.089.944Zm18.3,2.963a2.018,2.018,0,0,1-2.058-2.1,1.947,1.947,0,1,1,2.058,2.1Z"/>
      <path id="Trazado_9227" data-name="Trazado 9227" d="M1612.623,2671.493a12.355,12.355,0,0,1-1.24-4.286c-.573-4.815,1.875-8.286,6.223-8.8,4.2-.5,7.835,2.282,8.479,7.7a11.378,11.378,0,0,1-.185,3.845l-2.761-.379a7,7,0,0,0,.2-3.011,4.407,4.407,0,0,0-5.111-4.18c-2.879.342-4.276,2.6-3.959,5.256a8.455,8.455,0,0,0,.913,3.008Z"/>
      <path id="Trazado_9228" data-name="Trazado 9228" d="M1633.1,2671.516l.665,3.867-20.292,3.477-.664-3.866Z"/>
      <path id="Trazado_9229" data-name="Trazado 9229" d="M1624.686,2696.53c-5.053,1.185-8.228-2.2-9.131-6.048-1-4.254.878-8.2,5.31-9.239,4.516-1.059,8.047,1.552,9.117,6.117C1631.037,2691.862,1628.864,2695.55,1624.686,2696.53Zm-2.812-11.363c-2.654.623-4.316,2.552-3.777,4.85.509,2.173,2.786,3.245,5.58,2.589,2.145-.5,4.382-2.142,3.771-4.75C1626.814,2685.155,1624.16,2684.631,1621.874,2685.167Z"/>
      <path id="Trazado_9230" data-name="Trazado 9230" d="M1639.044,2702.537a48.4,48.4,0,0,1,2.543,5.727c1.39,3.772,1.632,6.608.9,8.985a8.383,8.383,0,0,1-5.578,5.659,9.621,9.621,0,0,1-8.449-.456c-2.4-1.4-4.423-4.287-5.868-8.209a48.056,48.056,0,0,1-1.587-5.06Zm-14.2,9.416a16.04,16.04,0,0,0,.669,2.066c1.738,4.8,5.207,6.752,9.859,5.038,4.038-1.454,5.429-4.891,3.73-9.5a14.043,14.043,0,0,0-1.117-2.445Z"/>
      <path id="Trazado_9231" data-name="Trazado 9231" d="M1648.608,2725.854l-17.823,8.021-1.61-3.577,17.823-8.022Z"/>
      <path id="Trazado_9232" data-name="Trazado 9232" d="M1640.628,2752.04a15.5,15.5,0,0,1-3.376-4.531c-3.187-6.038-1.686-11.519,3.6-14.307,5.694-3,11.44-.446,14.508,5.366a13.238,13.238,0,0,1,1.658,5l-2.9.593a11.5,11.5,0,0,0-1.3-4.076c-2.04-3.865-5.721-5.5-9.876-3.3-3.822,2.017-4.952,5.715-2.733,9.919a12.949,12.949,0,0,0,2.611,3.456Z"/>
      <path id="Trazado_9233" data-name="Trazado 9233" d="M1649.509,2756.908l-5.653,1.465-2.207-3.4,20.147-4.867,2.729,4.2-12.588,16.5-2.311-3.558,3.585-4.648Zm5.617,3.693,3.116-4.039c.771-1,1.7-2.016,2.474-2.9l-.035-.054c-1.122.349-2.457.8-3.621,1.134l-4.941,1.231Z"/>
      <path id="Trazado_9234" data-name="Trazado 9234" d="M1663.9,2785.316a15.474,15.474,0,0,1-4.12-3.865c-4.2-5.381-3.685-11.041,1.026-14.715,5.078-3.96,11.185-2.453,15.227,2.727a13.227,13.227,0,0,1,2.512,4.634l-2.751,1.095a11.483,11.483,0,0,0-2-3.783c-2.688-3.445-6.6-4.4-10.3-1.511-3.407,2.657-3.87,6.5-.946,10.244a12.97,12.97,0,0,0,3.178,2.941Z"/>
      <path id="Trazado_9235" data-name="Trazado 9235" d="M1686.113,2795.539c-4.784,4.479-10.5,3.846-14.535-.462-4.165-4.447-3.691-10.135.478-14.04,4.4-4.123,10.348-3.966,14.491.458C1690.821,2786.059,1690.2,2791.713,1686.113,2795.539ZM1674.954,2784c-2.921,2.735-3.723,6.5-1.15,9.25,2.6,2.771,6.405,2.131,9.389-.664,2.688-2.517,3.854-6.363,1.172-9.227C1681.7,2780.523,1677.9,2781.25,1674.954,2784Z"/>
      <path id="Trazado_9236" data-name="Trazado 9236" d="M1694.087,2815.206a15.5,15.5,0,0,1-4.758-3.047c-5.113-4.522-5.646-10.181-1.688-14.657,4.265-4.824,10.543-4.46,15.465-.106a13.214,13.214,0,0,1,3.319,4.1l-2.5,1.58a11.493,11.493,0,0,0-2.655-3.354c-3.274-2.9-7.291-3.119-10.4.4-2.863,3.237-2.614,7.1.947,10.246a12.946,12.946,0,0,0,3.663,2.31Z"/>
      <path id="Trazado_9237" data-name="Trazado 9237" d="M1711.893,2804.956l-6.74,9.193c-2.264,3.088-1.895,5.552.24,7.117,2.289,1.679,4.7,1.251,6.963-1.836l6.74-9.193,3.164,2.319-6.6,9.006c-3.567,4.866-7.9,5-12.065,1.945-4.013-2.943-5.12-6.882-1.484-11.842l6.621-9.029Z"/>
    </g>
    <g id="Grupo_9193" data-name="Grupo 9193">
      <path id="Trazado_9238" data-name="Trazado 9238" d="M1780.36,2610.059a40.176,40.176,0,0,1,5.686-.406c3.654,0,6.149.754,7.948,2.263a8.714,8.714,0,0,1,3.074,7.193,10.074,10.074,0,0,1-3.046,7.774c-1.943,1.77-5.047,2.669-8.847,2.669a39.718,39.718,0,0,1-4.815-.261Zm3.568,16.592a13.273,13.273,0,0,0,1.973.087c4.641.029,7.4-2.553,7.4-7.513.029-4.293-2.465-6.788-6.932-6.788a11.589,11.589,0,0,0-2.437.2Z"/>
      <path id="Trazado_9239" data-name="Trazado 9239" d="M1803.909,2611.277a2,2,0,1,1-2-1.943A1.907,1.907,0,0,1,1803.909,2611.277Zm-3.8,18.072v-14.127h3.568v14.127Z"/>
      <path id="Trazado_9240" data-name="Trazado 9240" d="M1807.388,2626.042a7.734,7.734,0,0,0,3.6,1.044c1.566,0,2.262-.667,2.262-1.595,0-.958-.58-1.422-2.32-2.06-2.756-.928-3.887-2.436-3.887-4.119,0-2.494,2.059-4.409,5.337-4.409a8.154,8.154,0,0,1,3.771.841l-.725,2.5a6.249,6.249,0,0,0-2.988-.812c-1.276,0-1.972.638-1.972,1.508,0,.9.667,1.3,2.465,1.973,2.582.9,3.742,2.2,3.771,4.293,0,2.581-2,4.438-5.743,4.438a9.115,9.115,0,0,1-4.293-.986Z"/>
      <path id="Trazado_9241" data-name="Trazado 9241" d="M1830.01,2628.914a10.33,10.33,0,0,1-4,.725c-4.409,0-7.281-2.843-7.281-7.223,0-4.235,2.9-7.513,7.861-7.513a9.515,9.515,0,0,1,3.452.638l-.638,2.7a5.878,5.878,0,0,0-2.7-.551,4.576,4.576,0,0,0,0,9.137,7.088,7.088,0,0,0,2.814-.551Z"/>
      <path id="Trazado_9242" data-name="Trazado 9242" d="M1836.446,2611.277a2,2,0,1,1-2-1.943A1.907,1.907,0,0,1,1836.446,2611.277Zm-3.8,18.072v-14.127h3.568v14.127Z"/>
      <path id="Trazado_9243" data-name="Trazado 9243" d="M1840.07,2619.921c0-1.856-.058-3.364-.116-4.7h3.133l.174,2.176h.058a5.5,5.5,0,0,1,4.844-2.495c3.249,0,5.947,2.785,5.947,7.194,0,5.1-3.22,7.571-6.44,7.571a4.639,4.639,0,0,1-3.974-1.886h-.058v7.31h-3.568Zm3.568,3.51a5.425,5.425,0,0,0,.087.986,3.26,3.26,0,0,0,3.162,2.5c2.262,0,3.6-1.885,3.6-4.67,0-2.495-1.219-4.525-3.51-4.525a3.382,3.382,0,0,0-3.22,2.639,4.785,4.785,0,0,0-.116.9Z"/>
      <path id="Trazado_9244" data-name="Trazado 9244" d="M1857.035,2608.754h3.568v20.6h-3.568Z"/>
      <path id="Trazado_9245" data-name="Trazado 9245" d="M1868.288,2611.277a2,2,0,1,1-2-1.943A1.907,1.907,0,0,1,1868.288,2611.277Zm-3.8,18.072v-14.127h3.568v14.127Z"/>
      <path id="Trazado_9246" data-name="Trazado 9246" d="M1871.912,2619.428c0-1.624-.059-2.988-.117-4.206h3.1l.174,2.118h.087a5.187,5.187,0,0,1,4.525-2.437c2.466,0,5.019,1.6,5.019,6.063v8.383h-3.568v-7.977c0-2.031-.754-3.568-2.7-3.568a3,3,0,0,0-2.785,2.088,3.312,3.312,0,0,0-.174,1.132v8.325h-3.567Z"/>
      <path id="Trazado_9247" data-name="Trazado 9247" d="M1899.464,2625.955a19.055,19.055,0,0,0,.232,3.394h-3.22l-.261-1.567h-.087a5.161,5.161,0,0,1-4.177,1.886,4.193,4.193,0,0,1-4.438-4.206c0-3.539,3.162-5.367,8.383-5.337v-.233c0-.928-.377-2.465-2.872-2.465a7.488,7.488,0,0,0-3.8,1.044l-.7-2.321a10.174,10.174,0,0,1,5.105-1.247c4.525,0,5.831,2.872,5.831,5.976Zm-3.481-3.51c-2.524-.029-4.931.493-4.931,2.64a1.872,1.872,0,0,0,2.03,2.03,2.929,2.929,0,0,0,2.814-1.943,2.416,2.416,0,0,0,.087-.784Z"/>
      <path id="Trazado_9248" data-name="Trazado 9248" d="M1797.242,2654.17c0,6.556-3.974,10.3-9.34,10.3-5.54,0-9.021-4.235-9.021-9.95,0-6.033,3.8-10.268,9.311-10.268C1793.877,2644.25,1797.242,2648.572,1797.242,2654.17Zm-14.59.261c0,4,2,7.165,5.424,7.165,3.452,0,5.395-3.22,5.395-7.31,0-3.683-1.827-7.164-5.395-7.164C1784.537,2647.122,1782.652,2650.4,1782.652,2654.431Z"/>
      <path id="Trazado_9249" data-name="Trazado 9249" d="M1800.254,2654.721c0-1.856-.058-3.364-.117-4.7h3.133l.174,2.176h.058a5.5,5.5,0,0,1,4.844-2.5c3.249,0,5.947,2.785,5.947,7.194,0,5.1-3.22,7.571-6.44,7.571a4.639,4.639,0,0,1-3.974-1.886h-.058v7.31h-3.567Zm3.567,3.51a5.444,5.444,0,0,0,.087.987,3.26,3.26,0,0,0,3.162,2.494c2.263,0,3.6-1.885,3.6-4.67,0-2.495-1.218-4.525-3.51-4.525a3.382,3.382,0,0,0-3.22,2.639,4.8,4.8,0,0,0-.116.9Z"/>
      <path id="Trazado_9250" data-name="Trazado 9250" d="M1819.742,2658.086c.087,2.553,2.059,3.655,4.351,3.655a11.389,11.389,0,0,0,3.916-.638l.522,2.437a12.694,12.694,0,0,1-4.931.9c-4.583,0-7.281-2.814-7.281-7.136,0-3.916,2.378-7.6,6.9-7.6,4.583,0,6.091,3.771,6.091,6.875a8.778,8.778,0,0,1-.116,1.508Zm6.207-2.494c.029-1.306-.551-3.452-2.93-3.452-2.2,0-3.132,2-3.277,3.452Z"/>
      <path id="Trazado_9251" data-name="Trazado 9251" d="M1832.182,2654.576c0-1.914-.029-3.306-.116-4.554h3.075l.145,2.669h.087a4.225,4.225,0,0,1,3.887-2.988,3.739,3.739,0,0,1,.841.087v3.336a5.74,5.74,0,0,0-1.073-.087,3.141,3.141,0,0,0-3.191,2.7,6.185,6.185,0,0,0-.087,1.073v7.339h-3.568Z"/>
      <path id="Trazado_9252" data-name="Trazado 9252" d="M1853.21,2660.755a19.051,19.051,0,0,0,.232,3.394h-3.22l-.261-1.567h-.087a5.161,5.161,0,0,1-4.177,1.886,4.193,4.193,0,0,1-4.438-4.206c0-3.539,3.162-5.366,8.383-5.337v-.233c0-.928-.377-2.465-2.872-2.465a7.485,7.485,0,0,0-3.8,1.044l-.7-2.321a10.173,10.173,0,0,1,5.1-1.247c4.525,0,5.831,2.872,5.831,5.976Zm-3.481-3.51c-2.524-.029-4.931.493-4.931,2.64a1.872,1.872,0,0,0,2.03,2.03,2.929,2.929,0,0,0,2.814-1.943,2.413,2.413,0,0,0,.087-.784Z"/>
      <path id="Trazado_9253" data-name="Trazado 9253" d="M1860.893,2646.4v3.626h3.394v2.669h-3.394v6.236c0,1.741.464,2.611,1.827,2.611a4.658,4.658,0,0,0,1.393-.145l.058,2.7a7.842,7.842,0,0,1-2.582.377,4.082,4.082,0,0,1-3.075-1.161c-.783-.812-1.131-2.117-1.131-3.974v-6.642h-2v-2.669h2v-2.639Z"/>
      <path id="Trazado_9254" data-name="Trazado 9254" d="M1870.782,2646.077a2,2,0,1,1-2-1.943A1.907,1.907,0,0,1,1870.782,2646.077Zm-3.8,18.072v-14.127h3.568v14.127Z"/>
      <path id="Trazado_9255" data-name="Trazado 9255" d="M1876.668,2650.022l2.292,7.165c.406,1.247.7,2.379.957,3.539H1880c.261-1.16.58-2.263.957-3.539l2.263-7.165h3.742l-5.4,14.127h-3.51l-5.25-14.127Z"/>
      <path id="Trazado_9256" data-name="Trazado 9256" d="M1899.928,2660.755a19.051,19.051,0,0,0,.232,3.394h-3.219l-.261-1.567h-.088a5.16,5.16,0,0,1-4.177,1.886,4.194,4.194,0,0,1-4.438-4.206c0-3.539,3.162-5.366,8.384-5.337v-.233c0-.928-.378-2.465-2.872-2.465a7.482,7.482,0,0,0-3.8,1.044l-.7-2.321a10.17,10.17,0,0,1,5.1-1.247c4.525,0,5.83,2.872,5.83,5.976Zm-3.481-3.51c-2.523-.029-4.931.493-4.931,2.64a1.872,1.872,0,0,0,2.031,2.03,2.931,2.931,0,0,0,2.814-1.943,2.439,2.439,0,0,0,.086-.784Z"/>
    </g>
  </g>
</svg>
