<svg xmlns="http://www.w3.org/2000/svg" width="278.401" height="278.402" viewBox="0 0 278.401 278.402">
  <g id="Grupo_9189" data-name="Grupo 9189" transform="translate(-1054.098 -1910.571)">
    <path id="Trazado_9183" data-name="Trazado 9183" d="M1063.676,2056.3a9.538,9.538,0,0,1-9.541-9.711v-.031a139.2,139.2,0,0,1,234.82-97.908,3.206,3.206,0,0,1,.366,4.259,138.588,138.588,0,0,0-28.054,83.816,140.415,140.415,0,0,0,1.365,19.575Zm0,0" fill="#6aaf55"/>
    <path id="Trazado_9184" data-name="Trazado 9184" d="M1299.967,2133.036a4.425,4.425,0,0,1,.232,5.9,139.2,139.2,0,0,1-245.945-82.483q-.162-3.467-.156-6.978,0-1.486.037-2.962h207.472a138.689,138.689,0,0,0,38.36,86.527Zm0,0" fill="#4d833d"/>
    <path id="Trazado_9185" data-name="Trazado 9185" d="M1271.6,2062.821h-76.125v-121.8a8.7,8.7,0,0,1,8.7-8.7H1247.6a8.7,8.7,0,0,1,8.632,7.622Zm0,0" fill="#86befb"/>
    <path id="Trazado_9186" data-name="Trazado 9186" d="M1233.536,2062.821h-76.125v-121.8a8.7,8.7,0,0,1,8.7-8.7h43.432a8.7,8.7,0,0,1,8.631,7.622Zm0,0" fill="#c0e54c"/>
    <path id="Trazado_9187" data-name="Trazado 9187" d="M1327.828,2013.884a139.482,139.482,0,0,1-27.64,125.062H1113.911V1935.584a8.7,8.7,0,0,1,8.7-8.7h43.432a8.7,8.7,0,0,1,8.631,7.621l1.768,14.129h112.5a140,140,0,0,1,14.808,16.409,2.293,2.293,0,0,1,.473,1.4v17.783a30.437,30.437,0,0,0,23.6,29.66Zm0,0" fill="#ff7c48"/>
    <path id="Trazado_9188" data-name="Trazado 9188" d="M1136.2,1935.584v203.362h-22.293V1935.584a8.7,8.7,0,0,1,8.7-8.7H1144.9a8.7,8.7,0,0,0-8.7,8.7Zm0,0" fill="#f76937"/>
    <path id="Trazado_9189" data-name="Trazado 9189" d="M1327.828,2013.884h-74.092a3.89,3.89,0,0,1-3.888-3.888v-41.161a3.89,3.89,0,0,1,3.888-3.889h49.941a138.735,138.735,0,0,1,24.151,48.938Zm0,0" fill="#ffc5ae"/>
    <path id="Trazado_9190" data-name="Trazado 9190" d="M1268.608,1977.725h43.819q2.418,3.993,4.574,8.156h-48.393a4.078,4.078,0,1,1,0-8.156Zm0,23.381h29.906a4.078,4.078,0,0,0,0-8.156h-29.906a4.078,4.078,0,1,0,0,8.156Zm0,0" fill="#ff956a"/>
    <path id="Trazado_9191" data-name="Trazado 9191" d="M1255.286,2013.884h-46.219a8.154,8.154,0,0,1-8.156-8.156V1973.1a8.155,8.155,0,0,1,8.156-8.157h46.219Zm0,0" fill="#eac23f"/>
    <path id="Trazado_9192" data-name="Trazado 9192" d="M1247.129,1992.621a19.043,19.043,0,0,1-.946,3.532,3.307,3.307,0,0,0-3.208,5.553,19.628,19.628,0,0,1-2.586,2.586,3.307,3.307,0,0,0-5.553,3.208,19.044,19.044,0,0,1-3.532.946,3.306,3.306,0,0,0-6.412,0,19.013,19.013,0,0,1-3.531-.946,3.307,3.307,0,0,0-5.554-3.208,19.689,19.689,0,0,1-2.586-2.586,3.307,3.307,0,0,0-3.208-5.553,19.119,19.119,0,0,1-.946-3.532,3.306,3.306,0,0,0,0-6.412,19.089,19.089,0,0,1,.946-3.531,3.307,3.307,0,0,0,3.208-5.554,19.742,19.742,0,0,1,2.586-2.586,3.307,3.307,0,0,0,5.554-3.208,19.089,19.089,0,0,1,3.531-.946,3.306,3.306,0,0,0,6.412,0,19.121,19.121,0,0,1,3.532.946,3.307,3.307,0,0,0,5.553,3.208,19.681,19.681,0,0,1,2.586,2.586,3.307,3.307,0,0,0,3.208,5.554,19.013,19.013,0,0,1,.946,3.531,3.306,3.306,0,0,0,0,6.412Zm-19.031-12.39a9.184,9.184,0,1,0,9.184,9.184,9.184,9.184,0,0,0-9.184-9.184Zm0,0" fill="#fff04a"/>
    <path id="Trazado_9193" data-name="Trazado 9193" d="M1254.189,2138.071H1067.157l-.264-31.534a68.361,68.361,0,0,1,49.068-66.151l25.281-7.437a68.364,68.364,0,0,1,38.842.079l25.032,7.474a68.36,68.36,0,0,1,48.805,64.933Zm0,0" fill="#fff04a"/>
    <path id="Trazado_9194" data-name="Trazado 9194" d="M1096.8,2106.537l.261,31.534h-29.906l-.261-31.534a68.361,68.361,0,0,1,49.068-66.151l25.279-7.437a68.423,68.423,0,0,1,25.67-2.478c2.876.269.09,3.7.09,3.7l-21.133,6.217a68.362,68.362,0,0,0-49.068,66.151Zm0,0" fill="#e9cc5a"/>
    <path id="Trazado_9195" data-name="Trazado 9195" d="M1128.807,2040.831v54.449a8.157,8.157,0,0,1-8.156,8.156h-4.469a8.158,8.158,0,0,1-8.156-8.156v-54.449a8.157,8.157,0,0,1,8.156-8.157h4.469a8.155,8.155,0,0,1,8.156,8.157Zm34.1-20.524h-4.469a8.159,8.159,0,0,0-8.157,8.156v66.817a8.159,8.159,0,0,0,8.157,8.156h4.469a8.157,8.157,0,0,0,8.156-8.156v-66.817a8.156,8.156,0,0,0-8.156-8.156Zm40.872,12.367h-4.469a8.156,8.156,0,0,0-8.157,8.157v54.449a8.157,8.157,0,0,0,8.157,8.156h4.469a8.159,8.159,0,0,0,8.156-8.156v-54.449a8.157,8.157,0,0,0-8.156-8.157Zm0,0" fill="#eac23f"/>
    <path id="Trazado_9196" data-name="Trazado 9196" d="M1122.495,2140.306a8.155,8.155,0,0,1-8.157,8.156h-46.646a8.156,8.156,0,0,1,0-16.312h46.646a8.155,8.155,0,0,1,8.157,8.156Zm0,0" fill="#eac23f"/>
    <path id="Trazado_9197" data-name="Trazado 9197" d="M1261.811,2140.306a8.155,8.155,0,0,1-8.157,8.156H1094.763a8.156,8.156,0,0,1,0-16.312h158.891a8.155,8.155,0,0,1,8.157,8.156Zm0,0" fill="#e9cc5a"/>
  </g>
</svg>
